<svg xmlns="http://www.w3.org/2000/svg" version="1.1" xmlns:xlink="http://www.w3.org/1999/xlink" xmlns:svgjs="http://svgjs.dev/svgjs" viewBox="0 0 22.118861677536167 4.848590043512971"><g transform="matrix(1,0,0,1,4.430350925675361,1.6383158334739134)"><rect width="22.118861677536167" height="4.848590043512971" x="-4.430350925675361" y="-1.6383158334739139" fill="#212245"></rect><g><path d=" M 0.06009129865976198 0.7189494661078665 L 0.06009129865976198 0.7017805236336487 L 0.14700906993548915 0.6588581674481044 L 0.14700906993548915 0.07296800551542515 L 0.06116435756440059 0.02789953152060365 L 0.06116435756440059 0.010730589046385908 L 0.22963460559266186 0.010730589046385908 L 0.6406161660692483 0.5161413331311697 L 0.6406161660692483 0.06974882880150934 L 0.5300910988914718 0.02789953152060365 L 0.5300910988914718 0.010730589046385908 L 0.8015750017650394 0.010730589046385908 L 0.8015750017650394 0.02789953152060365 L 0.7157302893939508 0.06974882880150934 L 0.7157302893939508 0.7243147606310595 L 0.6695887564944907 0.7243147606310595 L 0.22212319326019161 0.17490860145609277 L 0.22212319326019161 0.659931226352743 L 0.33264826043796814 0.7017805236336487 L 0.33264826043796814 0.7189494661078665 L 0.06009129865976198 0.7189494661078665 Z M 1.3026704562313642 0.7296800551542525 Q 1.2254102150973847 0.7296800551542525 1.1594170924621103 0.702317053085968 Q 1.093423969826836 0.6749540510176836 1.0445997896657795 0.626129870856627 Q 0.9957756095047228 0.5773056906955704 0.9689491368887576 0.5107760386079767 Q 0.9421226642727925 0.4442463865203831 0.9421226642727925 0.3648400275771262 Q 0.9421226642727925 0.2854336686338693 0.9689491368887576 0.21890401654627567 Q 0.9957756095047228 0.15237436445868202 1.0445997896657795 0.10355018429762541 Q 1.093423969826836 0.05472600413656881 1.1594170924621103 0.027363002068284348 Q 1.2254102150973847 -1.1102230246251565e-16 1.3026704562313642 -1.1102230246251565e-16 Q 1.379930697365344 -1.1102230246251565e-16 1.4459238200006184 0.027363002068284348 Q 1.5119169426358927 0.05472600413656881 1.5607411227969492 0.10355018429762541 Q 1.609565302958006 0.15237436445868202 1.6369283050262904 0.21890401654627567 Q 1.6642913070945748 0.2854336686338693 1.6642913070945748 0.3648400275771262 Q 1.6642913070945748 0.4442463865203831 1.6369283050262904 0.5107760386079767 Q 1.609565302958006 0.5773056906955704 1.5607411227969492 0.626129870856627 Q 1.5119169426358927 0.6749540510176836 1.4459238200006184 0.702317053085968 Q 1.379930697365344 0.7296800551542525 1.3026704562313642 0.7296800551542525 Z M 1.3241316343241365 0.6760271099223222 Q 1.3895882275070917 0.6760271099223222 1.4389489371204673 0.6416892249738868 Q 1.4883096467338435 0.6073513400254513 1.5162091782544471 0.5451139235564122 Q 1.5441087097750508 0.48287650708737295 1.5441087097750508 0.398104853620923 Q 1.5441087097750508 0.29401813987097813 1.5097708248266155 0.21622136928467917 Q 1.47543293987818 0.1384245986983802 1.4164147001230567 0.0955022425128359 Q 1.3573964603679334 0.0525798863272916 1.2855015137571466 0.0525798863272916 Q 1.2200449205741917 0.0525798863272916 1.1696111520561772 0.08638124182340778 Q 1.1191773835381627 0.12018259731952385 1.0907413225652396 0.1824200137885631 Q 1.0623052615923165 0.24465743025760223 1.0623052615923165 0.32942908372405216 Q 1.0623052615923165 0.43351579747399704 1.0971796759930712 0.5118490975126153 Q 1.1320540903938259 0.5901823975512337 1.1916088596012686 0.6331047537367779 Q 1.2511636288087113 0.6760271099223222 1.3241316343241365 0.6760271099223222 Z M 1.8091312052208823 0.7189494661078665 L 1.8091312052208823 0.7017805236336487 L 1.8960489764966095 0.6588581674481044 L 1.8960489764966095 0.07082188770614795 L 1.8091312052208823 0.02789953152060365 L 1.8091312052208823 0.010730589046385908 L 2.107441580710415 0.010730589046385908 Q 2.220112765697469 0.010730589046385908 2.2850328294281046 0.05740865139816531 Q 2.3499528931587403 0.10408671374994471 2.3499528931587403 0.1856391905024789 Q 2.3499528931587403 0.24573048916224083 2.3091766547824735 0.29187202206170093 Q 2.268400416406206 0.33801355496116103 2.2018707643186124 0.362693909767849 L 2.4046788972953093 0.6620773441620204 L 2.476573843906096 0.7017805236336487 L 2.476573843906096 0.7189494661078665 L 2.3038113602592802 0.7189494661078665 L 2.097784050568668 0.39273955909773 L 2.008720161483663 0.39273955909773 L 2.008720161483663 0.6577851085434658 L 2.089199579331559 0.7017805236336487 L 2.089199579331559 0.7189494661078665 L 1.8091312052208823 0.7189494661078665 Z M 2.072030636857341 0.06974882880150934 L 2.008720161483663 0.06974882880150934 L 2.008720161483663 0.33586743715188383 L 2.078468990285173 0.33586743715188383 Q 2.1449986423727663 0.33586743715188383 2.18845752801063 0.2977738460372133 Q 2.2319164136484937 0.25968025492254276 2.2319164136484937 0.20066201516741933 Q 2.2319164136484937 0.1394976576030188 2.1895305869152684 0.10462324320226402 Q 2.1471447601820435 0.06974882880150934 2.072030636857341 0.06974882880150934 Z M 2.67179668695972 0.7189494661078665 L 2.67179668695972 0.7017805236336487 L 2.780175636328219 0.6588581674481044 L 2.780175636328219 0.06974882880150934 L 2.610632329395319 0.06974882880150934 L 2.534445147165978 0.23178072340193895 L 2.5172762046917603 0.23178072340193895 L 2.5172762046917603 0.010730589046385908 L 3.154673194047093 0.010730589046385908 L 3.154673194047093 0.23178072340193895 L 3.1375042515728753 0.23178072340193895 L 3.0623901282481727 0.06974882880150934 L 2.891773762410634 0.06974882880150934 L 2.891773762410634 0.6588581674481044 L 3.0012257706837717 0.7017805236336487 L 3.0012257706837717 0.7189494661078665 L 2.67179668695972 0.7189494661078665 Z M 3.275920990953106 0.7189494661078665 L 3.275920990953106 0.7017805236336487 L 3.362838762228833 0.6588581674481044 L 3.362838762228833 0.07082188770614795 L 3.275920990953106 0.02789953152060365 L 3.275920990953106 0.010730589046385908 L 3.5602816006823366 0.010730589046385908 L 3.5602816006823366 0.02789953152060365 L 3.475509947215887 0.07082188770614795 L 3.475509947215887 0.32406378920085915 L 3.824254091223434 0.32406378920085915 L 3.824254091223434 0.07082188770614795 L 3.7384093788523454 0.02789953152060365 L 3.7384093788523454 0.010730589046385908 L 4.022769988581576 0.010730589046385908 L 4.022769988581576 0.02789953152060365 L 3.935852217305849 0.07082188770614795 L 3.935852217305849 0.6588581674481044 L 4.022769988581576 0.7017805236336487 L 4.022769988581576 0.7189494661078665 L 3.7384093788523454 0.7189494661078665 L 3.7384093788523454 0.7017805236336487 L 3.824254091223434 0.6588581674481044 L 3.824254091223434 0.38308202895598253 L 3.475509947215887 0.38308202895598253 L 3.475509947215887 0.6588581674481044 L 3.5602816006823366 0.7017805236336487 L 3.5602816006823366 0.7189494661078665 L 3.275920990953106 0.7189494661078665 Z M 4.383295250494787 0.7296800551542525 Q 4.315692539502555 0.7296800551542525 4.267941418246137 0.7168033482985893 Q 4.220190296989719 0.7039266414429259 4.169756528471704 0.679246286636238 L 4.159025939425319 0.5021915673708679 L 4.176194881899536 0.5021915673708679 L 4.233067003845382 0.6191549879764761 Q 4.270624065507733 0.6502736962109956 4.307108068265446 0.6642234619712976 Q 4.343592071023159 0.6781732277315994 4.380076073780871 0.6781732277315994 Q 4.44231349024991 0.6781732277315994 4.478260963555304 0.6459814605924412 Q 4.514208436860697 0.613789693453283 4.514208436860697 0.5579906304120754 Q 4.514208436860697 0.5139952153218925 4.494356847124883 0.48770527215824666 Q 4.474505257389069 0.4614153289946008 4.43533860736976 0.440490680354148 Q 4.39617195735045 0.41956603171369516 4.339299835404605 0.3916665001930914 Q 4.263112653175263 0.3551824974353788 4.222336414798996 0.314942788511431 Q 4.181560176422729 0.27470307958748325 4.181560176422729 0.20173507407205793 Q 4.181560176422729 0.16310495350506815 4.200338707253905 0.12715748019967477 Q 4.21911723808508 0.09121000689428149 4.251309005224239 0.06277394592135843 Q 4.283500772363396 0.03433788494843526 4.323203951835025 0.01716894247421763 Q 4.362907131306653 -1.1102230246251565e-16 4.4058294874921975 -1.1102230246251565e-16 Q 4.456263256010212 -1.1102230246251565e-16 4.500258671100395 0.01180364795102451 Q 4.544254086190578 0.02360729590204924 4.587176442376123 0.04614153289945999 L 4.597907031422508 0.21783095764163707 L 4.580738088948291 0.21783095764163707 L 4.524939025907083 0.10301365484530611 Q 4.490601140958648 0.07618718222934096 4.462701609438044 0.06438353427831633 Q 4.43480207791744 0.0525798863272916 4.399391134064366 0.0525798863272916 Q 4.353249601164906 0.0525798863272916 4.322667422382706 0.08369859456181117 Q 4.292085243600505 0.11481730279633084 4.292085243600505 0.16203189460042955 Q 4.292085243600505 0.21461178092772126 4.324813540191983 0.24465743025760223 Q 4.357541836783461 0.27470307958748325 4.430509842298886 0.30904096453591867 Q 4.494893376577203 0.34015967277043824 4.537279203310427 0.36859573374336135 Q 4.579665030043652 0.3970317947162844 4.600053149231786 0.43244273856935844 Q 4.620441268419919 0.46785368242243247 4.620441268419919 0.5225796865590014 Q 4.620441268419919 0.573013455077016 4.598980090327147 0.6116435756440057 Q 4.577518912234375 0.6502736962109956 4.542107968381301 0.6765636393746415 Q 4.5066970245282265 0.7028535825382873 4.4653842566996405 0.71626681884627 Q 4.424071488871054 0.7296800551542525 4.383295250494787 0.7296800551542525 Z M 4.889730325711684 0.7189494661078665 L 4.889730325711684 0.7017805236336487 L 4.998109275080184 0.6588581674481044 L 4.998109275080184 0.06974882880150934 L 4.8285659681472834 0.06974882880150934 L 4.7523787859179425 0.23178072340193895 L 4.735209843443725 0.23178072340193895 L 4.735209843443725 0.010730589046385908 L 5.3726068327990575 0.010730589046385908 L 5.3726068327990575 0.23178072340193895 L 5.35543789032484 0.23178072340193895 L 5.280323767000137 0.06974882880150934 L 5.1097074011625985 0.06974882880150934 L 5.1097074011625985 0.6588581674481044 L 5.219159409435736 0.7017805236336487 L 5.219159409435736 0.7189494661078665 L 4.889730325711684 0.7189494661078665 Z M 5.428391749067597 0.7189494661078665 L 5.428391749067597 0.7017805236336487 L 5.495994460059829 0.6663695797805748 L 5.77177059855195 0.005365294523192898 L 5.830788838307074 0.005365294523192898 L 6.103345800085281 0.663150403066659 L 6.175240746696067 0.7017805236336487 L 6.175240746696067 0.7189494661078665 L 5.891953195871475 0.7189494661078665 L 5.891953195871475 0.7017805236336487 L 5.9863823794796724 0.6642234619712976 L 5.9069760205364155 0.4710728591363483 L 5.648368824518511 0.4710728591363483 L 5.570035524479892 0.6652965208759362 L 5.660172472469536 0.7017805236336487 L 5.660172472469536 0.7189494661078665 L 5.428391749067597 0.7189494661078665 Z M 5.673049179325199 0.4120546193812249 L 5.883368724634366 0.4120546193812249 L 5.778208951979782 0.15344742336332062 L 5.673049179325199 0.4120546193812249 Z M 6.282526726887283 0.7189494661078665 L 6.282526726887283 0.7017805236336487 L 6.36944449816301 0.6588581674481044 L 6.36944449816301 0.07082188770614795 L 6.282526726887283 0.02789953152060365 L 6.282526726887283 0.010730589046385908 L 6.580837102376815 0.010730589046385908 Q 6.693508287363869 0.010730589046385908 6.758428351094505 0.05740865139816531 Q 6.823348414825141 0.10408671374994471 6.823348414825141 0.1856391905024789 Q 6.823348414825141 0.24573048916224083 6.782572176448873 0.29187202206170093 Q 6.741795938072607 0.33801355496116103 6.675266285985013 0.362693909767849 L 6.87807441896171 0.6620773441620204 L 6.949969365572496 0.7017805236336487 L 6.949969365572496 0.7189494661078665 L 6.7772068819256805 0.7189494661078665 L 6.571179572235068 0.39273955909773 L 6.482115683150064 0.39273955909773 L 6.482115683150064 0.6577851085434658 L 6.562595100997959 0.7017805236336487 L 6.562595100997959 0.7189494661078665 L 6.282526726887283 0.7189494661078665 Z M 6.545426158523742 0.06974882880150934 L 6.482115683150064 0.06974882880150934 L 6.482115683150064 0.33586743715188383 L 6.551864511951573 0.33586743715188383 Q 6.618394164039167 0.33586743715188383 6.66185304967703 0.2977738460372133 Q 6.705311935314894 0.25968025492254276 6.705311935314894 0.20066201516741933 Q 6.705311935314894 0.1394976576030188 6.662926108581669 0.10462324320226402 Q 6.620540281848444 0.06974882880150934 6.545426158523742 0.06974882880150934 Z" fill="#ffffff" fill-rule="nonzero"></path></g><g><path d=" M 0.04446 1.5719583765651437 L 0.04446 1.5610143765651436 L 0.09918 1.5336543765651438 L 0.09918 1.1588223765651438 L 0.04446 1.1314623765651437 L 0.04446 1.1205183765651436 L 0.22230000000000003 1.1205183765651436 Q 0.303012 1.1205183765651436 0.351918 1.1499303765651436 Q 0.400824 1.1793423765651436 0.400824 1.2429543765651436 Q 0.400824 1.2805743765651436 0.375174 1.3096443765651438 Q 0.349524 1.3387143765651437 0.305406 1.3558143765651436 Q 0.261288 1.3729143765651437 0.205884 1.3729143765651437 L 0.16074000000000002 1.3729143765651437 L 0.16074000000000002 1.5336543765651438 L 0.22230000000000003 1.5610143765651436 L 0.22230000000000003 1.5719583765651437 L 0.04446 1.5719583765651437 Z M 0.16074000000000002 1.1581383765651436 L 0.16074000000000002 1.3352943765651437 L 0.21888000000000002 1.3352943765651437 Q 0.272916 1.3352943765651437 0.303696 1.3110123765651438 Q 0.334476 1.2867303765651437 0.334476 1.2484263765651438 Q 0.334476 1.2005463765651436 0.303354 1.1793423765651436 Q 0.27223200000000003 1.1581383765651436 0.214092 1.1581383765651436 L 0.16074000000000002 1.1581383765651436 Z M 0.48765058593750005 1.5719583765651437 L 0.48765058593750005 1.5610143765651436 L 0.5423705859375001 1.5336543765651438 L 0.5423705859375001 1.1588223765651438 L 0.48765058593750005 1.1314623765651437 L 0.48765058593750005 1.1205183765651436 L 0.6641225859375001 1.1205183765651436 Q 0.7359425859375001 1.1205183765651436 0.7773245859375001 1.1502723765651437 Q 0.8187065859375 1.1800263765651438 0.8187065859375 1.2320103765651438 Q 0.8187065859375 1.2703143765651437 0.7927145859375 1.3007523765651436 Q 0.7667225859375001 1.3311903765651436 0.7236305859375001 1.3469223765651437 L 0.8535905859375001 1.5363903765651437 L 0.8987345859375 1.5610143765651436 L 0.8987345859375 1.5719583765651437 L 0.8002385859375001 1.5719583765651437 L 0.6675425859375 1.3647063765651437 L 0.6039305859375 1.3647063765651437 L 0.6039305859375 1.5329703765651437 L 0.6552305859375 1.5610143765651436 L 0.6552305859375 1.5719583765651437 L 0.48765058593750005 1.5719583765651437 Z M 0.6483905859375001 1.1581383765651436 L 0.6039305859375 1.1581383765651436 L 0.6039305859375 1.3270863765651437 L 0.6524945859375001 1.3270863765651437 Q 0.6955865859375001 1.3270863765651437 0.7239725859375001 1.3028043765651436 Q 0.7523585859375 1.2785223765651437 0.7523585859375 1.2409023765651437 Q 0.7523585859375 1.2025983765651436 0.7243145859375001 1.1803683765651436 Q 0.6962705859375 1.1581383765651436 0.6483905859375001 1.1581383765651436 Z M 1.177772185546875 1.5787983765651437 Q 1.128524185546875 1.5787983765651437 1.087142185546875 1.5613563765651437 Q 1.045760185546875 1.5439143765651437 1.014980185546875 1.5127923765651436 Q 0.984200185546875 1.4816703765651438 0.967100185546875 1.4392623765651438 Q 0.950000185546875 1.3968543765651438 0.950000185546875 1.3462383765651438 Q 0.950000185546875 1.2956223765651438 0.967100185546875 1.2532143765651438 Q 0.984200185546875 1.2108063765651438 1.014980185546875 1.1796843765651437 Q 1.045760185546875 1.1485623765651436 1.087142185546875 1.1311203765651436 Q 1.128524185546875 1.1136783765651437 1.177772185546875 1.1136783765651437 Q 1.227020185546875 1.1136783765651437 1.268744185546875 1.1311203765651436 Q 1.310468185546875 1.1485623765651436 1.341248185546875 1.1796843765651437 Q 1.372028185546875 1.2108063765651438 1.3891281855468751 1.2532143765651438 Q 1.406228185546875 1.2956223765651438 1.406228185546875 1.3462383765651438 Q 1.406228185546875 1.3968543765651438 1.3891281855468751 1.4392623765651438 Q 1.372028185546875 1.4816703765651438 1.341248185546875 1.5127923765651436 Q 1.310468185546875 1.5439143765651437 1.268744185546875 1.5613563765651437 Q 1.227020185546875 1.5787983765651437 1.177772185546875 1.5787983765651437 Z M 1.192136185546875 1.5445983765651436 Q 1.235912185546875 1.5445983765651436 1.269086185546875 1.5227103765651437 Q 1.302260185546875 1.5008223765651436 1.321070185546875 1.4611503765651437 Q 1.3398801855468752 1.4214783765651438 1.3398801855468752 1.3674423765651438 Q 1.3398801855468752 1.3010943765651437 1.316624185546875 1.2515043765651437 Q 1.293368185546875 1.2019143765651437 1.254038185546875 1.1745543765651436 Q 1.214708185546875 1.1471943765651438 1.166144185546875 1.1471943765651438 Q 1.122368185546875 1.1471943765651438 1.088510185546875 1.1687403765651436 Q 1.0546521855468751 1.1902863765651437 1.035500185546875 1.2299583765651436 Q 1.016348185546875 1.2696303765651438 1.016348185546875 1.3236663765651437 Q 1.016348185546875 1.3900143765651436 1.039946185546875 1.4399463765651437 Q 1.063544185546875 1.4898783765651438 1.103216185546875 1.5172383765651436 Q 1.142888185546875 1.5445983765651436 1.192136185546875 1.5445983765651436 Z M 1.50537111328125 1.5719583765651437 L 1.50537111328125 1.5610143765651436 L 1.56009111328125 1.5336543765651438 L 1.56009111328125 1.1588223765651438 L 1.50537111328125 1.1314623765651437 L 1.50537111328125 1.1205183765651436 L 1.68321111328125 1.1205183765651436 Q 1.76392311328125 1.1205183765651436 1.81282911328125 1.1499303765651436 Q 1.86173511328125 1.1793423765651436 1.86173511328125 1.2429543765651436 Q 1.86173511328125 1.2805743765651436 1.83608511328125 1.3096443765651438 Q 1.81043511328125 1.3387143765651437 1.76631711328125 1.3558143765651436 Q 1.72219911328125 1.3729143765651437 1.66679511328125 1.3729143765651437 L 1.6216511132812501 1.3729143765651437 L 1.6216511132812501 1.5336543765651438 L 1.68321111328125 1.5610143765651436 L 1.68321111328125 1.5719583765651437 L 1.50537111328125 1.5719583765651437 Z M 1.6216511132812501 1.1581383765651436 L 1.6216511132812501 1.3352943765651437 L 1.67979111328125 1.3352943765651437 Q 1.73382711328125 1.3352943765651437 1.76460711328125 1.3110123765651438 Q 1.79538711328125 1.2867303765651437 1.79538711328125 1.2484263765651438 Q 1.79538711328125 1.2005463765651436 1.7642651132812501 1.1793423765651436 Q 1.73314311328125 1.1581383765651436 1.67500311328125 1.1581383765651436 L 1.6216511132812501 1.1581383765651436 Z M 1.94856169921875 1.5719583765651437 L 1.94856169921875 1.5610143765651436 L 2.00328169921875 1.5336543765651438 L 2.00328169921875 1.1588223765651438 L 1.94856169921875 1.1314623765651437 L 1.94856169921875 1.1205183765651436 L 2.28303769921875 1.1205183765651436 L 2.28303769921875 1.2381663765651436 L 2.27209369921875 1.2381663765651436 L 2.22968569921875 1.1581383765651436 L 2.06484169921875 1.1581383765651436 L 2.06484169921875 1.3202463765651438 L 2.18112169921875 1.3202463765651438 L 2.21532169921875 1.2634743765651437 L 2.22626569921875 1.2634743765651437 L 2.22626569921875 1.4132703765651438 L 2.21532169921875 1.4132703765651438 L 2.18112169921875 1.3578663765651438 L 2.06484169921875 1.3578663765651438 L 2.06484169921875 1.5343383765651437 L 2.24883769921875 1.5343383765651437 L 2.29124569921875 1.4474703765651438 L 2.30218969921875 1.4474703765651438 L 2.30218969921875 1.5719583765651437 L 1.94856169921875 1.5719583765651437 Z M 2.4013543359375 1.5719583765651437 L 2.4013543359375 1.5610143765651436 L 2.4560743359375 1.5336543765651438 L 2.4560743359375 1.1588223765651438 L 2.4013543359375 1.1314623765651437 L 2.4013543359375 1.1205183765651436 L 2.5778263359375 1.1205183765651436 Q 2.6496463359375 1.1205183765651436 2.6910283359375002 1.1502723765651437 Q 2.7324103359375003 1.1800263765651438 2.7324103359375003 1.2320103765651438 Q 2.7324103359375003 1.2703143765651437 2.7064183359375003 1.3007523765651436 Q 2.6804263359375002 1.3311903765651436 2.6373343359375 1.3469223765651437 L 2.7672943359375 1.5363903765651437 L 2.8124383359375003 1.5610143765651436 L 2.8124383359375003 1.5719583765651437 L 2.7139423359375003 1.5719583765651437 L 2.5812463359375 1.3647063765651437 L 2.5176343359375 1.3647063765651437 L 2.5176343359375 1.5329703765651437 L 2.5689343359375 1.5610143765651436 L 2.5689343359375 1.5719583765651437 L 2.4013543359375 1.5719583765651437 Z M 2.5620943359375 1.1581383765651436 L 2.5176343359375 1.1581383765651436 L 2.5176343359375 1.3270863765651437 L 2.5661983359375 1.3270863765651437 Q 2.6092903359375 1.3270863765651437 2.6376763359375 1.3028043765651436 Q 2.6660623359375 1.2785223765651437 2.6660623359375 1.2409023765651437 Q 2.6660623359375 1.2025983765651436 2.6380183359375002 1.1803683765651436 Q 2.6099743359375003 1.1581383765651436 2.5620943359375 1.1581383765651436 Z M 2.940305255859375 1.5719583765651437 L 2.940305255859375 1.5610143765651436 L 3.008705255859375 1.5336543765651438 L 3.008705255859375 1.1581383765651436 L 2.8972132558593753 1.1581383765651436 L 2.850701255859375 1.2586863765651437 L 2.839757255859375 1.2586863765651437 L 2.839757255859375 1.1205183765651436 L 3.239213255859375 1.1205183765651436 L 3.239213255859375 1.2586863765651437 L 3.228269255859375 1.2586863765651437 L 3.181757255859375 1.1581383765651436 L 3.070265255859375 1.1581383765651436 L 3.070265255859375 1.5336543765651438 L 3.138665255859375 1.5610143765651436 L 3.138665255859375 1.5719583765651437 L 2.940305255859375 1.5719583765651437 Z M 3.4327511894531253 1.5719583765651437 L 3.4327511894531253 1.5610143765651436 L 3.4943111894531254 1.5336543765651438 L 3.4943111894531254 1.3612863765651437 L 3.342463189453125 1.1540343765651437 L 3.3007391894531253 1.1314623765651437 L 3.3007391894531253 1.1205183765651436 L 3.4662671894531254 1.1205183765651436 L 3.4662671894531254 1.1314623765651437 L 3.4163351894531253 1.1554023765651436 L 3.4163351894531253 1.1581383765651436 L 3.5387711894531253 1.3243503765651436 L 3.648895189453125 1.1588223765651438 L 3.648895189453125 1.1560863765651437 L 3.598963189453125 1.1314623765651437 L 3.598963189453125 1.1205183765651436 L 3.7439711894531253 1.1205183765651436 L 3.7439711894531253 1.1314623765651437 L 3.700195189453125 1.1540343765651437 L 3.5558711894531254 1.3606023765651436 L 3.5558711894531254 1.5336543765651438 L 3.617431189453125 1.5610143765651436 L 3.617431189453125 1.5719583765651437 L 3.4327511894531253 1.5719583765651437 Z M 3.9935597167968755 1.5719583765651437 L 3.9935597167968755 1.5610143765651436 L 4.0475957167968755 1.5336543765651438 L 4.061959716796875 1.1595063765651437 L 4.0031357167968755 1.1314623765651437 L 4.0031357167968755 1.1205183765651436 L 4.129675716796875 1.1205183765651436 L 4.287679716796875 1.4844063765651436 L 4.444999716796875 1.1205183765651436 L 4.565383716796875 1.1205183765651436 L 4.565383716796875 1.1314623765651437 L 4.507927716796876 1.1588223765651438 L 4.519555716796876 1.5336543765651438 L 4.567435716796876 1.5610143765651436 L 4.567435716796876 1.5719583765651437 L 4.410115716796875 1.5719583765651437 L 4.410115716796875 1.5610143765651436 L 4.460731716796875 1.5343383765651437 L 4.453891716796876 1.1971263765651436 L 4.2904157167968755 1.5753783765651437 L 4.2596357167968755 1.5753783765651437 L 4.098895716796875 1.2019143765651437 L 4.0900037167968755 1.5343383765651437 L 4.145407716796876 1.5610143765651436 L 4.145407716796876 1.5719583765651437 L 3.9935597167968755 1.5719583765651437 Z M 4.637877029296876 1.5719583765651437 L 4.637877029296876 1.5610143765651436 L 4.681653029296875 1.5384423765651436 L 4.856757029296875 1.1170983765651437 L 4.887537029296875 1.1170983765651437 L 5.059905029296876 1.5363903765651437 L 5.105733029296875 1.5610143765651436 L 5.105733029296875 1.5719583765651437 L 4.936101029296875 1.5719583765651437 L 4.936101029296875 1.5610143765651436 L 4.996293029296876 1.5377583765651437 L 4.944993029296875 1.4112183765651436 L 4.7787810292968755 1.4112183765651436 L 4.728165029296876 1.5377583765651437 L 4.785621029296875 1.5610143765651436 L 4.785621029296875 1.5719583765651437 L 4.637877029296876 1.5719583765651437 Z M 4.794513029296875 1.3735983765651436 L 4.929945029296875 1.3735983765651436 L 4.862229029296875 1.2053343765651436 L 4.794513029296875 1.3735983765651436 Z M 5.17614328125 1.5719583765651437 L 5.17614328125 1.5610143765651436 L 5.23086328125 1.5336543765651438 L 5.23086328125 1.1601903765651436 L 5.1768272812500005 1.1314623765651437 L 5.1768272812500005 1.1205183765651436 L 5.27737528125 1.1205183765651436 L 5.53866328125 1.4488383765651438 L 5.53866328125 1.1574543765651437 L 5.47026328125 1.1314623765651437 L 5.47026328125 1.1205183765651436 L 5.64057928125 1.1205183765651436 L 5.64057928125 1.1314623765651437 L 5.58654328125 1.1581383765651436 L 5.58654328125 1.5753783765651437 L 5.56123528125 1.5753783765651437 L 5.278743281250001 1.2190143765651436 L 5.278743281250001 1.5343383765651437 L 5.34714328125 1.5610143765651436 L 5.34714328125 1.5719583765651437 L 5.17614328125 1.5719583765651437 Z M 5.69045717578125 1.5719583765651437 L 5.69045717578125 1.5610143765651436 L 5.73423317578125 1.5384423765651436 L 5.90933717578125 1.1170983765651437 L 5.94011717578125 1.1170983765651437 L 6.11248517578125 1.5363903765651437 L 6.15831317578125 1.5610143765651436 L 6.15831317578125 1.5719583765651437 L 5.98868117578125 1.5719583765651437 L 5.98868117578125 1.5610143765651436 L 6.04887317578125 1.5377583765651437 L 5.99757317578125 1.4112183765651436 L 5.83136117578125 1.4112183765651436 L 5.7807451757812505 1.5377583765651437 L 5.83820117578125 1.5610143765651436 L 5.83820117578125 1.5719583765651437 L 5.69045717578125 1.5719583765651437 Z M 5.84709317578125 1.3735983765651436 L 5.98252517578125 1.3735983765651436 L 5.91480917578125 1.2053343765651436 L 5.84709317578125 1.3735983765651436 Z M 6.442795388671875 1.5787983765651437 Q 6.3771313886718755 1.5787983765651437 6.325489388671875 1.5500703765651438 Q 6.273847388671875 1.5213423765651437 6.244435388671875 1.4717523765651437 Q 6.2150233886718755 1.4221623765651437 6.2150233886718755 1.3585503765651437 Q 6.2150233886718755 1.3058823765651437 6.233833388671876 1.2614223765651436 Q 6.252643388671875 1.2169623765651436 6.2865013886718755 1.1837883765651438 Q 6.320359388671875 1.1506143765651438 6.364135388671875 1.1321463765651436 Q 6.4079113886718755 1.1136783765651437 6.458527388671875 1.1136783765651437 Q 6.494095388671876 1.1136783765651437 6.519403388671876 1.1177823765651436 Q 6.5447113886718755 1.1218863765651437 6.564547388671875 1.1294103765651438 Q 6.584383388671875 1.1369343765651436 6.604219388671876 1.1465103765651437 L 6.607639388671876 1.2593703765651436 L 6.5966953886718755 1.2593703765651436 L 6.552235388671876 1.1827623765651436 Q 6.5235073886718755 1.1629263765651436 6.503329388671875 1.1554023765651436 Q 6.4831513886718755 1.1478783765651437 6.457159388671875 1.1478783765651437 Q 6.404491388671875 1.1478783765651437 6.3634513886718755 1.1707923765651436 Q 6.322411388671876 1.1937063765651437 6.299155388671876 1.2337203765651437 Q 6.275899388671875 1.2737343765651437 6.275899388671875 1.3243503765651436 Q 6.275899388671875 1.3927503765651437 6.300865388671875 1.4406303765651436 Q 6.325831388671875 1.4885103765651437 6.368239388671875 1.5138183765651436 Q 6.410647388671875 1.5391263765651437 6.462631388671875 1.5391263765651437 Q 6.485203388671875 1.5391263765651437 6.506065388671876 1.5363903765651437 Q 6.526927388671876 1.5336543765651438 6.549499388671875 1.5247623765651437 L 6.549499388671875 1.4119023765651437 L 6.488623388671876 1.3845423765651437 L 6.488623388671876 1.3735983765651436 L 6.658255388671876 1.3735983765651436 L 6.658255388671876 1.3845423765651437 L 6.611059388671875 1.4139543765651437 L 6.611059388671875 1.5213423765651437 Q 6.579595388671875 1.5473343765651437 6.533425388671875 1.5630663765651438 Q 6.487255388671875 1.5787983765651437 6.442795388671875 1.5787983765651437 Z M 6.743717314453126 1.5719583765651437 L 6.743717314453126 1.5610143765651436 L 6.798437314453126 1.5336543765651438 L 6.798437314453126 1.1588223765651438 L 6.743717314453126 1.1314623765651437 L 6.743717314453126 1.1205183765651436 L 7.078193314453126 1.1205183765651436 L 7.078193314453126 1.2381663765651436 L 7.067249314453126 1.2381663765651436 L 7.024841314453126 1.1581383765651436 L 6.859997314453126 1.1581383765651436 L 6.859997314453126 1.3202463765651438 L 6.976277314453126 1.3202463765651438 L 7.010477314453126 1.2634743765651437 L 7.021421314453126 1.2634743765651437 L 7.021421314453126 1.4132703765651438 L 7.010477314453126 1.4132703765651438 L 6.976277314453126 1.3578663765651438 L 6.859997314453126 1.3578663765651438 L 6.859997314453126 1.5343383765651437 L 7.043993314453126 1.5343383765651437 L 7.086401314453126 1.4474703765651438 L 7.0973453144531256 1.4474703765651438 L 7.0973453144531256 1.5719583765651437 L 6.743717314453126 1.5719583765651437 Z M 7.193089951171876 1.5719583765651437 L 7.193089951171876 1.5610143765651436 L 7.247125951171876 1.5336543765651438 L 7.2614899511718765 1.1595063765651437 L 7.202665951171876 1.1314623765651437 L 7.202665951171876 1.1205183765651436 L 7.329205951171876 1.1205183765651436 L 7.487209951171876 1.4844063765651436 L 7.644529951171876 1.1205183765651436 L 7.764913951171876 1.1205183765651436 L 7.764913951171876 1.1314623765651437 L 7.707457951171876 1.1588223765651438 L 7.719085951171876 1.5336543765651438 L 7.766965951171876 1.5610143765651436 L 7.766965951171876 1.5719583765651437 L 7.609645951171876 1.5719583765651437 L 7.609645951171876 1.5610143765651436 L 7.660261951171877 1.5343383765651437 L 7.653421951171876 1.1971263765651436 L 7.489945951171876 1.5753783765651437 L 7.459165951171876 1.5753783765651437 L 7.298425951171876 1.2019143765651437 L 7.289533951171876 1.5343383765651437 L 7.344937951171876 1.5610143765651436 L 7.344937951171876 1.5719583765651437 L 7.193089951171876 1.5719583765651437 Z M 7.859295263671876 1.5719583765651437 L 7.859295263671876 1.5610143765651436 L 7.9140152636718755 1.5336543765651438 L 7.9140152636718755 1.1588223765651438 L 7.859295263671876 1.1314623765651437 L 7.859295263671876 1.1205183765651436 L 8.193771263671875 1.1205183765651436 L 8.193771263671875 1.2381663765651436 L 8.182827263671875 1.2381663765651436 L 8.140419263671875 1.1581383765651436 L 7.9755752636718755 1.1581383765651436 L 7.9755752636718755 1.3202463765651438 L 8.091855263671876 1.3202463765651438 L 8.126055263671876 1.2634743765651437 L 8.136999263671877 1.2634743765651437 L 8.136999263671877 1.4132703765651438 L 8.126055263671876 1.4132703765651438 L 8.091855263671876 1.3578663765651438 L 7.9755752636718755 1.3578663765651438 L 7.9755752636718755 1.5343383765651437 L 8.159571263671875 1.5343383765651437 L 8.201979263671875 1.4474703765651438 L 8.212923263671875 1.4474703765651438 L 8.212923263671875 1.5719583765651437 L 7.859295263671876 1.5719583765651437 Z M 8.308667900390626 1.5719583765651437 L 8.308667900390626 1.5610143765651436 L 8.363387900390626 1.5336543765651438 L 8.363387900390626 1.1601903765651436 L 8.309351900390626 1.1314623765651437 L 8.309351900390626 1.1205183765651436 L 8.409899900390625 1.1205183765651436 L 8.671187900390626 1.4488383765651438 L 8.671187900390626 1.1574543765651437 L 8.602787900390625 1.1314623765651437 L 8.602787900390625 1.1205183765651436 L 8.773103900390625 1.1205183765651436 L 8.773103900390625 1.1314623765651437 L 8.719067900390625 1.1581383765651436 L 8.719067900390625 1.5753783765651437 L 8.693759900390626 1.5753783765651437 L 8.411267900390625 1.2190143765651436 L 8.411267900390625 1.5343383765651437 L 8.479667900390625 1.5610143765651436 L 8.479667900390625 1.5719583765651437 L 8.308667900390626 1.5719583765651437 Z M 8.952277833984375 1.5719583765651437 L 8.952277833984375 1.5610143765651436 L 9.020677833984376 1.5336543765651438 L 9.020677833984376 1.1581383765651436 L 8.909185833984376 1.1581383765651436 L 8.862673833984376 1.2586863765651437 L 8.851729833984376 1.2586863765651437 L 8.851729833984376 1.1205183765651436 L 9.251185833984376 1.1205183765651436 L 9.251185833984376 1.2586863765651437 L 9.240241833984376 1.2586863765651437 L 9.193729833984376 1.1581383765651436 L 9.082237833984376 1.1581383765651436 L 9.082237833984376 1.5336543765651438 L 9.150637833984376 1.5610143765651436 L 9.150637833984376 1.5719583765651437 L 8.952277833984375 1.5719583765651437 Z M 9.59789801953125 1.5719583765651437 L 9.59789801953125 1.5610143765651436 L 9.66629801953125 1.5336543765651438 L 9.66629801953125 1.1581383765651436 L 9.55480601953125 1.1581383765651436 L 9.50829401953125 1.2586863765651437 L 9.49735001953125 1.2586863765651437 L 9.49735001953125 1.1205183765651436 L 9.896806019531251 1.1205183765651436 L 9.896806019531251 1.2586863765651437 L 9.88586201953125 1.2586863765651437 L 9.83935001953125 1.1581383765651436 L 9.72785801953125 1.1581383765651436 L 9.72785801953125 1.5336543765651438 L 9.796258019531251 1.5610143765651436 L 9.796258019531251 1.5719583765651437 L 9.59789801953125 1.5719583765651437 Z M 9.978851953125002 1.5719583765651437 L 9.978851953125002 1.5610143765651436 L 10.033571953125001 1.5336543765651438 L 10.033571953125001 1.1588223765651438 L 9.978851953125002 1.1314623765651437 L 9.978851953125002 1.1205183765651436 L 10.313327953125 1.1205183765651436 L 10.313327953125 1.2381663765651436 L 10.302383953125 1.2381663765651436 L 10.259975953125 1.1581383765651436 L 10.095131953125001 1.1581383765651436 L 10.095131953125001 1.3202463765651438 L 10.211411953125001 1.3202463765651438 L 10.245611953125001 1.2634743765651437 L 10.256555953125002 1.2634743765651437 L 10.256555953125002 1.4132703765651438 L 10.245611953125001 1.4132703765651438 L 10.211411953125001 1.3578663765651438 L 10.095131953125001 1.3578663765651438 L 10.095131953125001 1.5343383765651437 L 10.279127953125 1.5343383765651437 L 10.321535953125 1.4474703765651438 L 10.332479953125 1.4474703765651438 L 10.332479953125 1.5719583765651437 L 9.978851953125002 1.5719583765651437 Z M 10.66078458984375 1.5787983765651437 Q 10.59101658984375 1.5787983765651437 10.54040058984375 1.5500703765651438 Q 10.489784589843751 1.5213423765651437 10.462424589843751 1.4717523765651437 Q 10.43506458984375 1.4221623765651437 10.43506458984375 1.3585503765651437 Q 10.43506458984375 1.3099863765651436 10.45387458984375 1.2658683765651437 Q 10.47268458984375 1.2217503765651436 10.505174589843751 1.1875503765651436 Q 10.53766458984375 1.1533503765651436 10.58041458984375 1.1335143765651436 Q 10.62316458984375 1.1136783765651437 10.671044589843751 1.1136783765651437 Q 10.705244589843751 1.1136783765651437 10.72918458984375 1.1181243765651436 Q 10.75312458984375 1.1225703765651436 10.77193458984375 1.1297523765651436 Q 10.79074458984375 1.1369343765651436 10.809896589843751 1.1465103765651437 L 10.813316589843751 1.2662103765651436 L 10.80100458984375 1.2662103765651436 L 10.759280589843751 1.1827623765651436 Q 10.73328858984375 1.1642943765651437 10.71379458984375 1.1560863765651437 Q 10.69430058984375 1.1478783765651437 10.66967658984375 1.1478783765651437 Q 10.620428589843751 1.1478783765651437 10.58178258984375 1.1725023765651437 Q 10.54313658984375 1.1971263765651436 10.52090658984375 1.2398763765651437 Q 10.49867658984375 1.2826263765651436 10.49867658984375 1.3380303765651438 Q 10.49867658984375 1.4030103765651436 10.520222589843751 1.4491803765651436 Q 10.54176858984375 1.4953503765651437 10.578362589843751 1.5196323765651436 Q 10.61495658984375 1.5439143765651437 10.659416589843751 1.5439143765651437 Q 10.69703658984375 1.5439143765651437 10.72268658984375 1.5333123765651437 Q 10.74833658984375 1.5227103765651437 10.76817258984375 1.5097143765651437 L 10.80921258984375 1.4365263765651437 L 10.820840589843751 1.4365263765651437 L 10.813316589843751 1.5452823765651438 Q 10.79348058984375 1.5555423765651437 10.77261858984375 1.5630663765651438 Q 10.751756589843751 1.5705903765651437 10.725080589843751 1.5746943765651438 Q 10.69840458984375 1.5787983765651437 10.66078458984375 1.5787983765651437 Z M 10.935035859375 1.5719583765651437 L 10.935035859375 1.5610143765651436 L 10.989755859375 1.5336543765651438 L 10.989755859375 1.1588223765651438 L 10.935035859375 1.1314623765651437 L 10.935035859375 1.1205183765651436 L 11.106035859375 1.1205183765651436 L 11.106035859375 1.1314623765651437 L 11.051315859375 1.1588223765651438 L 11.051315859375 1.3202463765651438 L 11.283875859375 1.3202463765651438 L 11.283875859375 1.1588223765651438 L 11.229155859375 1.1314623765651437 L 11.229155859375 1.1205183765651436 L 11.400155859375 1.1205183765651436 L 11.400155859375 1.1314623765651437 L 11.345435859375 1.1588223765651438 L 11.345435859375 1.5336543765651438 L 11.400155859375 1.5610143765651436 L 11.400155859375 1.5719583765651437 L 11.229155859375 1.5719583765651437 L 11.229155859375 1.5610143765651436 L 11.283875859375 1.5336543765651438 L 11.283875859375 1.3578663765651438 L 11.051315859375 1.3578663765651438 L 11.051315859375 1.5336543765651438 L 11.106035859375 1.5610143765651436 L 11.106035859375 1.5719583765651437 L 10.935035859375 1.5719583765651437 Z M 11.492494189453126 1.5719583765651437 L 11.492494189453126 1.5610143765651436 L 11.547214189453125 1.5336543765651438 L 11.547214189453125 1.1601903765651436 L 11.493178189453126 1.1314623765651437 L 11.493178189453126 1.1205183765651436 L 11.593726189453125 1.1205183765651436 L 11.855014189453126 1.4488383765651438 L 11.855014189453126 1.1574543765651437 L 11.786614189453125 1.1314623765651437 L 11.786614189453125 1.1205183765651436 L 11.956930189453125 1.1205183765651436 L 11.956930189453125 1.1314623765651437 L 11.902894189453125 1.1581383765651436 L 11.902894189453125 1.5753783765651437 L 11.877586189453126 1.5753783765651437 L 11.595094189453125 1.2190143765651436 L 11.595094189453125 1.5343383765651437 L 11.663494189453125 1.5610143765651436 L 11.663494189453125 1.5719583765651437 L 11.492494189453126 1.5719583765651437 Z M 12.280428123046875 1.5787983765651437 Q 12.231180123046876 1.5787983765651437 12.189798123046875 1.5613563765651437 Q 12.148416123046875 1.5439143765651437 12.117636123046875 1.5127923765651436 Q 12.086856123046875 1.4816703765651438 12.069756123046876 1.4392623765651438 Q 12.052656123046875 1.3968543765651438 12.052656123046875 1.3462383765651438 Q 12.052656123046875 1.2956223765651438 12.069756123046876 1.2532143765651438 Q 12.086856123046875 1.2108063765651438 12.117636123046875 1.1796843765651437 Q 12.148416123046875 1.1485623765651436 12.189798123046875 1.1311203765651436 Q 12.231180123046876 1.1136783765651437 12.280428123046875 1.1136783765651437 Q 12.329676123046875 1.1136783765651437 12.371400123046875 1.1311203765651436 Q 12.413124123046876 1.1485623765651436 12.443904123046876 1.1796843765651437 Q 12.474684123046876 1.2108063765651438 12.491784123046875 1.2532143765651438 Q 12.508884123046876 1.2956223765651438 12.508884123046876 1.3462383765651438 Q 12.508884123046876 1.3968543765651438 12.491784123046875 1.4392623765651438 Q 12.474684123046876 1.4816703765651438 12.443904123046876 1.5127923765651436 Q 12.413124123046876 1.5439143765651437 12.371400123046875 1.5613563765651437 Q 12.329676123046875 1.5787983765651437 12.280428123046875 1.5787983765651437 Z M 12.294792123046875 1.5445983765651436 Q 12.338568123046876 1.5445983765651436 12.371742123046875 1.5227103765651437 Q 12.404916123046876 1.5008223765651436 12.423726123046876 1.4611503765651437 Q 12.442536123046876 1.4214783765651438 12.442536123046876 1.3674423765651438 Q 12.442536123046876 1.3010943765651437 12.419280123046876 1.2515043765651437 Q 12.396024123046875 1.2019143765651437 12.356694123046875 1.1745543765651436 Q 12.317364123046875 1.1471943765651438 12.268800123046876 1.1471943765651438 Q 12.225024123046875 1.1471943765651438 12.191166123046875 1.1687403765651436 Q 12.157308123046876 1.1902863765651437 12.138156123046876 1.2299583765651436 Q 12.119004123046876 1.2696303765651438 12.119004123046876 1.3236663765651437 Q 12.119004123046876 1.3900143765651436 12.142602123046876 1.4399463765651437 Q 12.166200123046876 1.4898783765651438 12.205872123046875 1.5172383765651436 Q 12.245544123046875 1.5445983765651436 12.294792123046875 1.5445983765651436 Z M 12.608027050781251 1.5719583765651437 L 12.608027050781251 1.5610143765651436 L 12.66274705078125 1.5336543765651438 L 12.66274705078125 1.1588223765651438 L 12.608027050781251 1.1314623765651437 L 12.608027050781251 1.1205183765651436 L 12.78586705078125 1.1205183765651436 L 12.78586705078125 1.1314623765651437 L 12.72430705078125 1.1588223765651438 L 12.72430705078125 1.5343383765651437 L 12.89051905078125 1.5343383765651437 L 12.93703105078125 1.4201103765651437 L 12.94797505078125 1.4201103765651437 L 12.94797505078125 1.5719583765651437 L 12.608027050781251 1.5719583765651437 Z M 13.278318328125 1.5787983765651437 Q 13.229070328125001 1.5787983765651437 13.187688328125 1.5613563765651437 Q 13.146306328125 1.5439143765651437 13.115526328125 1.5127923765651436 Q 13.084746328125 1.4816703765651438 13.067646328125 1.4392623765651438 Q 13.050546328125 1.3968543765651438 13.050546328125 1.3462383765651438 Q 13.050546328125 1.2956223765651438 13.067646328125 1.2532143765651438 Q 13.084746328125 1.2108063765651438 13.115526328125 1.1796843765651437 Q 13.146306328125 1.1485623765651436 13.187688328125 1.1311203765651436 Q 13.229070328125001 1.1136783765651437 13.278318328125 1.1136783765651437 Q 13.327566328125 1.1136783765651437 13.369290328125 1.1311203765651436 Q 13.411014328125 1.1485623765651436 13.441794328125 1.1796843765651437 Q 13.472574328125 1.2108063765651438 13.489674328125 1.2532143765651438 Q 13.506774328125001 1.2956223765651438 13.506774328125001 1.3462383765651438 Q 13.506774328125001 1.3968543765651438 13.489674328125 1.4392623765651438 Q 13.472574328125 1.4816703765651438 13.441794328125 1.5127923765651436 Q 13.411014328125 1.5439143765651437 13.369290328125 1.5613563765651437 Q 13.327566328125 1.5787983765651437 13.278318328125 1.5787983765651437 Z M 13.292682328125 1.5445983765651436 Q 13.336458328125001 1.5445983765651436 13.369632328125 1.5227103765651437 Q 13.402806328125001 1.5008223765651436 13.421616328125001 1.4611503765651437 Q 13.440426328125001 1.4214783765651438 13.440426328125001 1.3674423765651438 Q 13.440426328125001 1.3010943765651437 13.417170328125001 1.2515043765651437 Q 13.393914328125 1.2019143765651437 13.354584328125 1.1745543765651436 Q 13.315254328125 1.1471943765651438 13.266690328125001 1.1471943765651438 Q 13.222914328125 1.1471943765651438 13.189056328125 1.1687403765651436 Q 13.155198328125001 1.1902863765651437 13.136046328125001 1.2299583765651436 Q 13.116894328125001 1.2696303765651438 13.116894328125001 1.3236663765651437 Q 13.116894328125001 1.3900143765651436 13.140492328125001 1.4399463765651437 Q 13.164090328125 1.4898783765651438 13.203762328125 1.5172383765651436 Q 13.243434328125 1.5445983765651436 13.292682328125 1.5445983765651436 Z M 13.843914187500001 1.5787983765651437 Q 13.7782501875 1.5787983765651437 13.7266081875 1.5500703765651438 Q 13.6749661875 1.5213423765651437 13.6455541875 1.4717523765651437 Q 13.6161421875 1.4221623765651437 13.6161421875 1.3585503765651437 Q 13.6161421875 1.3058823765651437 13.6349521875 1.2614223765651436 Q 13.6537621875 1.2169623765651436 13.6876201875 1.1837883765651438 Q 13.7214781875 1.1506143765651438 13.7652541875 1.1321463765651436 Q 13.8090301875 1.1136783765651437 13.859646187500001 1.1136783765651437 Q 13.8952141875 1.1136783765651437 13.9205221875 1.1177823765651436 Q 13.9458301875 1.1218863765651437 13.9656661875 1.1294103765651438 Q 13.9855021875 1.1369343765651436 14.0053381875 1.1465103765651437 L 14.0087581875 1.2593703765651436 L 13.9978141875 1.2593703765651436 L 13.9533541875 1.1827623765651436 Q 13.9246261875 1.1629263765651436 13.9044481875 1.1554023765651436 Q 13.8842701875 1.1478783765651437 13.8582781875 1.1478783765651437 Q 13.805610187500001 1.1478783765651437 13.7645701875 1.1707923765651436 Q 13.7235301875 1.1937063765651437 13.7002741875 1.2337203765651437 Q 13.6770181875 1.2737343765651437 13.6770181875 1.3243503765651436 Q 13.6770181875 1.3927503765651437 13.7019841875 1.4406303765651436 Q 13.7269501875 1.4885103765651437 13.7693581875 1.5138183765651436 Q 13.8117661875 1.5391263765651437 13.8637501875 1.5391263765651437 Q 13.8863221875 1.5391263765651437 13.9071841875 1.5363903765651437 Q 13.9280461875 1.5336543765651438 13.9506181875 1.5247623765651437 L 13.9506181875 1.4119023765651437 L 13.8897421875 1.3845423765651437 L 13.8897421875 1.3735983765651436 L 14.0593741875 1.3735983765651436 L 14.0593741875 1.3845423765651437 L 14.0121781875 1.4139543765651437 L 14.0121781875 1.5213423765651437 Q 13.9807141875 1.5473343765651437 13.9345441875 1.5630663765651438 Q 13.8883741875 1.5787983765651437 13.843914187500001 1.5787983765651437 Z M 14.14825611328125 1.5719583765651437 L 14.14825611328125 1.5610143765651436 L 14.20297611328125 1.5336543765651438 L 14.20297611328125 1.1588223765651438 L 14.14825611328125 1.1314623765651437 L 14.14825611328125 1.1205183765651436 L 14.31925611328125 1.1205183765651436 L 14.31925611328125 1.1314623765651437 L 14.26453611328125 1.1588223765651438 L 14.26453611328125 1.5336543765651438 L 14.31925611328125 1.5610143765651436 L 14.31925611328125 1.5719583765651437 L 14.14825611328125 1.5719583765651437 Z M 14.418404384765626 1.5719583765651437 L 14.418404384765626 1.5610143765651436 L 14.473124384765626 1.5336543765651438 L 14.473124384765626 1.1588223765651438 L 14.418404384765626 1.1314623765651437 L 14.418404384765626 1.1205183765651436 L 14.752880384765625 1.1205183765651436 L 14.752880384765625 1.2381663765651436 L 14.741936384765625 1.2381663765651436 L 14.699528384765625 1.1581383765651436 L 14.534684384765626 1.1581383765651436 L 14.534684384765626 1.3202463765651438 L 14.650964384765626 1.3202463765651438 L 14.685164384765626 1.2634743765651437 L 14.696108384765626 1.2634743765651437 L 14.696108384765626 1.4132703765651438 L 14.685164384765626 1.4132703765651438 L 14.650964384765626 1.3578663765651438 L 14.534684384765626 1.3578663765651438 L 14.534684384765626 1.5343383765651437 L 14.718680384765625 1.5343383765651437 L 14.761088384765625 1.4474703765651438 L 14.772032384765625 1.4474703765651438 L 14.772032384765625 1.5719583765651437 L 14.418404384765626 1.5719583765651437 Z M 15.007313021484375 1.5787983765651437 Q 14.964905021484375 1.5787983765651437 14.935493021484374 1.5709323765651437 Q 14.906081021484376 1.5630663765651438 14.874617021484374 1.5473343765651437 L 14.867777021484375 1.4351583765651437 L 14.878721021484374 1.4351583765651437 L 14.912237021484374 1.5076623765651438 Q 14.936861021484376 1.5281823765651437 14.960117021484375 1.5374163765651436 Q 14.983373021484375 1.5466503765651436 15.007313021484375 1.5466503765651436 Q 15.047669021484374 1.5466503765651436 15.070583021484374 1.5254463765651436 Q 15.093497021484374 1.5042423765651436 15.093497021484374 1.4679903765651436 Q 15.093497021484374 1.4378943765651437 15.080159021484375 1.4207943765651436 Q 15.066821021484374 1.4036943765651437 15.041855021484375 1.3903563765651437 Q 15.016889021484374 1.3770183765651436 14.982689021484374 1.3599183765651437 Q 14.950541021484375 1.3435023765651437 14.927969021484374 1.3277703765651436 Q 14.905397021484374 1.3120383765651438 14.893769021484374 1.2911763765651436 Q 14.882141021484374 1.2703143765651437 14.882141021484374 1.2388503765651437 Q 14.882141021484374 1.2155943765651438 14.893427021484374 1.1933643765651436 Q 14.904713021484374 1.1711343765651436 14.924207021484374 1.1530083765651438 Q 14.943701021484374 1.1348823765651437 14.967983021484375 1.1242803765651437 Q 14.992265021484375 1.1136783765651437 15.018257021484375 1.1136783765651437 Q 15.049721021484375 1.1136783765651437 15.076397021484375 1.1212023765651438 Q 15.103073021484375 1.1287263765651436 15.131117021484375 1.1424063765651438 L 15.137957021484375 1.2518463765651437 L 15.127013021484375 1.2518463765651437 L 15.095549021484375 1.1800263765651438 Q 15.071609021484376 1.1622423765651437 15.053825021484375 1.1543763765651436 Q 15.036041021484374 1.1465103765651437 15.012785021484374 1.1465103765651437 Q 14.982689021484374 1.1465103765651437 14.963195021484374 1.1670303765651437 Q 14.943701021484374 1.1875503765651436 14.943701021484374 1.2176463765651437 Q 14.943701021484374 1.2525303765651437 14.964905021484375 1.2720243765651436 Q 14.986109021484374 1.2915183765651437 15.031253021484375 1.3134063765651436 Q 15.072977021484375 1.3339263765651437 15.099653021484375 1.3513683765651436 Q 15.126329021484375 1.3688103765651436 15.139325021484375 1.3913823765651436 Q 15.152321021484374 1.4139543765651437 15.152321021484374 1.4488383765651438 Q 15.152321021484374 1.4809863765651436 15.138641021484375 1.5052683765651438 Q 15.124961021484374 1.5295503765651437 15.103415021484375 1.5459663765651437 Q 15.081869021484374 1.5623823765651437 15.056219021484376 1.5705903765651437 Q 15.030569021484375 1.5787983765651437 15.007313021484375 1.5787983765651437 Z M 15.422421533203122 1.5719583765651437 L 15.422421533203122 1.5610143765651436 L 15.477141533203124 1.5336543765651438 L 15.477141533203124 1.1588223765651438 L 15.422421533203122 1.1314623765651437 L 15.422421533203122 1.1205183765651436 L 15.593421533203124 1.1205183765651436 L 15.593421533203124 1.1314623765651437 L 15.538701533203124 1.1588223765651438 L 15.538701533203124 1.5336543765651438 L 15.593421533203124 1.5610143765651436 L 15.593421533203124 1.5719583765651437 L 15.422421533203122 1.5719583765651437 Z M 15.6891498046875 1.5719583765651437 L 15.6891498046875 1.5610143765651436 L 15.743869804687499 1.5336543765651438 L 15.743869804687499 1.1601903765651436 L 15.689833804687499 1.1314623765651437 L 15.689833804687499 1.1205183765651436 L 15.790381804687499 1.1205183765651436 L 16.0516698046875 1.4488383765651438 L 16.0516698046875 1.1574543765651437 L 15.983269804687499 1.1314623765651437 L 15.983269804687499 1.1205183765651436 L 16.1535858046875 1.1205183765651436 L 16.1535858046875 1.1314623765651437 L 16.0995498046875 1.1581383765651436 L 16.0995498046875 1.5753783765651437 L 16.0742418046875 1.5753783765651437 L 15.791749804687498 1.2190143765651436 L 15.791749804687498 1.5343383765651437 L 15.860149804687499 1.5610143765651436 L 15.860149804687499 1.5719583765651437 L 15.6891498046875 1.5719583765651437 Z M 16.475031738281245 1.5787983765651437 Q 16.405263738281246 1.5787983765651437 16.354647738281248 1.5500703765651438 Q 16.304031738281246 1.5213423765651437 16.276671738281248 1.4717523765651437 Q 16.249311738281246 1.4221623765651437 16.249311738281246 1.3585503765651437 Q 16.249311738281246 1.3099863765651436 16.26812173828125 1.2658683765651437 Q 16.286931738281247 1.2217503765651436 16.319421738281246 1.1875503765651436 Q 16.35191173828125 1.1533503765651436 16.394661738281247 1.1335143765651436 Q 16.43741173828125 1.1136783765651437 16.485291738281248 1.1136783765651437 Q 16.519491738281246 1.1136783765651437 16.543431738281246 1.1181243765651436 Q 16.567371738281246 1.1225703765651436 16.586181738281248 1.1297523765651436 Q 16.604991738281246 1.1369343765651436 16.624143738281248 1.1465103765651437 L 16.627563738281246 1.2662103765651436 L 16.61525173828125 1.2662103765651436 L 16.573527738281246 1.1827623765651436 Q 16.547535738281248 1.1642943765651437 16.528041738281246 1.1560863765651437 Q 16.508547738281248 1.1478783765651437 16.48392373828125 1.1478783765651437 Q 16.434675738281246 1.1478783765651437 16.396029738281246 1.1725023765651437 Q 16.357383738281246 1.1971263765651436 16.335153738281246 1.2398763765651437 Q 16.312923738281246 1.2826263765651436 16.312923738281246 1.3380303765651438 Q 16.312923738281246 1.4030103765651436 16.334469738281246 1.4491803765651436 Q 16.356015738281247 1.4953503765651437 16.392609738281248 1.5196323765651436 Q 16.42920373828125 1.5439143765651437 16.473663738281246 1.5439143765651437 Q 16.511283738281247 1.5439143765651437 16.53693373828125 1.5333123765651437 Q 16.562583738281248 1.5227103765651437 16.582419738281246 1.5097143765651437 L 16.623459738281248 1.4365263765651437 L 16.635087738281246 1.4365263765651437 L 16.627563738281246 1.5452823765651438 Q 16.60772773828125 1.5555423765651437 16.586865738281247 1.5630663765651438 Q 16.566003738281246 1.5705903765651437 16.539327738281248 1.5746943765651438 Q 16.512651738281246 1.5787983765651437 16.475031738281245 1.5787983765651437 Z M 16.790323007812496 1.5753783765651437 Q 16.773223007812497 1.5753783765651437 16.760911007812496 1.5630663765651438 Q 16.748599007812498 1.5507543765651437 16.748599007812498 1.5336543765651438 Q 16.748599007812498 1.5165543765651437 16.760911007812496 1.5042423765651436 Q 16.773223007812497 1.4919303765651437 16.790323007812496 1.4919303765651437 Q 16.807423007812496 1.4919303765651437 16.819735007812497 1.5042423765651436 Q 16.8320470078125 1.5165543765651437 16.8320470078125 1.5336543765651438 Q 16.8320470078125 1.5507543765651437 16.819735007812497 1.5630663765651438 Q 16.807423007812496 1.5753783765651437 16.790323007812496 1.5753783765651437 Z" fill="#dceac6" fill-rule="nonzero"></path></g><g clip-path="url(&quot;#SvgjsClipPath1019&quot;)"><g clip-path="url(&quot;#SvgjsClipPath1008&quot;)"><path d=" M -0.8712040915798918 -0.3543765920765079 C -0.2429243687710505 0.27390313073233397 -0.2429243687710505 1.2925456200903787 -0.8712040915798918 1.92082534289922 C -1.4994838143887335 2.5491050657080616 -2.5181263037467785 2.5491050657080616 -3.1464060265556197 1.92082534289922 C -3.7746857493644614 1.2925456200903787 -3.7746857493644614 0.2739031307323335 -3.1464060265556197 -0.354376592076508 C -2.518126303746778 -0.9826563148853493 -1.4994838143887335 -0.9826563148853493 -0.8712040915798918 -0.3543765920765079 Z" fill="#18285f" transform="matrix(1,0,0,1,0,0)" fill-rule="nonzero"></path></g><g clip-path="url(&quot;#SvgjsClipPath1008&quot;)"><path d=" M -1.7789785154864628 2.3756237536566576 C -1.9963072567374658 2.4068243440057517 -2.217713416294676 2.393441993833373 -2.429702046505942 2.336292372023351 L -2.429702046505942 -0.5446541978559656 L -1.7789785154864628 0.17527023248845908 Z" fill="#ffffff" transform="matrix(1,0,0,1,0,0)" fill-rule="evenodd"></path></g><g clip-path="url(&quot;#SvgjsClipPath1008&quot;)"><path d=" M -0.9739707713435775 2.014956306389414 C -1.162577866437967 2.173763109981232 -1.3852487147057868 2.2869637606833817 -1.6246943023630585 2.3457689283003336 L -1.6246943023630585 0.5866556212567017 L -0.9739707713435775 1.1048102107456166 Z" fill="#ffffff" transform="matrix(1,0,0,1,0,0)" fill-rule="evenodd"></path></g><g clip-path="url(&quot;#SvgjsClipPath1008&quot;)"><path d=" M -0.4493368619815632 1.179917428866447 C -0.5087133853872783 1.4134531301365962 -0.6199349853201275 1.6306134546578233 -0.7747427044972435 1.8152727771483725 L -0.7747427044972435 0.5168229515132924 Z" fill="#ffffff" transform="matrix(1,0,0,1,0,0)" fill-rule="evenodd"></path></g><g clip-path="url(&quot;#SvgjsClipPath1008&quot;)"><path d=" M -2.8538550746613147 2.1523737185733194 C -2.9339771102546135 2.1028135337711333 -3.009607954695852 2.0463362105170417 -3.079881961118837 1.9835881704958358 L -3.079881961118837 1.425925891349856 L -2.853899151667254 1.212887029309159 Z" fill="#ffffff" transform="matrix(1,0,0,1,0,0)" fill-rule="evenodd"></path></g><g clip-path="url(&quot;#SvgjsClipPath1008&quot;)"><path d=" M -3.0798819611188377 1.9835881704958345 C -3.1273166651037188 1.941208975290167 -3.172215729539464 1.8960744262507379 -3.2143462139047987 1.8484186856148423 L -3.2143462139047987 0.8655014531650044 L -2.9668979025607025 0.98035143830791 L -2.9668979025607025 1.3194652296707599 L -3.0798819611188377 1.4259846606911082 Z" fill="#3e96d2" transform="matrix(1,0,0,1,0,0)" fill-rule="evenodd"></path></g><g clip-path="url(&quot;#SvgjsClipPath1008&quot;)"><path d=" M -3.214302136898861 1.848418685614841 C -3.417344223424991 1.619262970793593 -3.550515183902096 1.3367539320877402 -3.5980659352783784 1.0343016935778024 L -3.214302136898861 0.8653398374765596 Z" fill="#ffffff" transform="matrix(1,0,0,1,0,0)" fill-rule="evenodd"></path></g><g clip-path="url(&quot;#SvgjsClipPath1008&quot;)"><path d=" M -2.528463924480948 2.3062171616373295 C -2.576586220076624 2.2898107205376435 -2.6236016930787085 2.2712004291409844 -2.6695103434872025 2.2503862874473533 L -2.670538806959123 2.2499308250526457 L -2.6733009659979956 2.2486672842157143 C -2.7354527926846077 2.220418716609368 -2.795740208293131 2.1882359838815946 -2.8537963053200617 2.152314949232067 L -2.8537963053200617 1.212887029309159 L -2.677106280844102 1.2146794942173633 L -2.677106280844102 -0.480316461519675 L -2.4243981134578956 -0.5446541978559655 L -2.4243981134578956 2.337673451542787 C -2.459542179526954 2.3282997416129962 -2.494196501085574 2.317784926973884 -2.5283610781337558 2.3061290076254504 Z" fill="#3e96d2" transform="matrix(1,0,0,1,0,0)" fill-rule="evenodd"></path></g><g clip-path="url(&quot;#SvgjsClipPath1008&quot;)"><path d=" M -1.6246943023630585 2.351278554042765 C -1.7506297540372961 2.3808491137116525 -1.8794555216513704 2.3963659566666986 -2.0088107167900926 2.3975447179438794 C -2.098175009332578 2.398461145154034 -2.1874315629194045 2.39108335100733 -2.275432525717856 2.375506214974152 L -2.275432525717856 -0.37369418415213446 L -2.2297540552292645 -0.3231084736689537 L -2.2297540552292645 1.068534834857445 L -2.1036938182424243 0.9681421076626805 L -2.1036938182424243 -0.1839720582534088 L -2.0580300400891494 -0.13344511711148066 L -2.0580300400891494 0.9317491930920047 L -1.9458540599732375 0.8424197943880435 L -1.9458540599732375 -0.009338960721289813 L -1.9001755894846495 0.04126144209720406 L -1.9001755894846495 0.8060856491586196 L -1.6246943023630585 0.5867290829332675 L -1.6246943023630585 0.7116139330950554 L -0.9739707713435775 1.229783214919283 L -0.9739707713435775 1.1048983647574953 L -1.2993031521826919 0.8458431085160075 L -1.2993031521826919 0.5168229515132924 L -0.7747867815031828 0.5168229515132924 L -0.7747867815031828 1.8153021618189973 C -0.835263789369483 1.8875205116777374 -0.9019258637231391 1.9543251524145981 -0.9740148483495172 2.014956306389413 L -0.9740148483495172 2.026798328651813 L -1.624738379368998 1.5086290468275858 L -1.624738379368998 1.644533148474237 L -1.0677372553121107 2.0880800592429685 C -1.0896484247091243 2.103898806930128 -1.1119611846046968 2.119188630546015 -1.1346755349988293 2.1339495300906273 L -1.624738379368998 1.7437064118380095 L -1.624738379368998 1.8759374296563731 L -1.2293382514214644 2.1907941754172104 C -1.2540409645279764 2.2045070217094853 -1.2791305757977343 2.217588097583295 -1.3046070852307392 2.230037403038638 L -1.6247383793689978 1.9751106930201456 L -1.6247383793689978 2.111014794666797 L -1.4143294453493551 2.278507417236725 C -1.4424113955778912 2.289693181855138 -1.4708753465245707 2.3000855603666404 -1.4997212981893915 2.309684552771233 L -1.6247383793689978 2.210143981024631 L -1.6247383793689978 2.3511904000308856 Z M -0.9739707713435775 1.3289270936124296 L -1.6246943023630585 0.8107578117882018 L -1.6246943023630585 0.9429888296065655 L -0.9739707713435775 1.46114341909548 L -0.9739707713435775 1.3289124012771163 Z M -0.9739707713435775 1.560316682459253 L -1.6246943023630585 1.0421620929703383 L -1.6246943023630585 1.1780661946169895 L -0.9739707713435775 1.696220784105904 L -0.9739707713435775 1.560316682459253 Z M -0.9739707713435775 1.795394047469677 L -1.6246943023630585 1.2772394579807624 L -1.6246943023630585 1.409470475799126 L -0.9739707713435775 1.9276250652880411 Z" fill="#3e96d2" transform="matrix(1,0,0,1,0,0)" fill-rule="evenodd"></path></g></g></g><defs><clipPath id="SvgjsClipPath1019"><path d=" M -3.6176214335801835 -0.8255863413787358 h 3.2176214335801836 v 3.2231310593226152 h -3.2176214335801836 Z"></path></clipPath><clipPath id="SvgjsClipPath1008"><path d=" M -3.6176214335801835 -0.8255863413787358 L -0.3999999999999999 -0.8255863413787358 L -0.3999999999999999 2.3975447179438794 L -3.6176214335801835 2.3975447179438794 Z"></path></clipPath></defs></svg>