<svg xmlns="http://www.w3.org/2000/svg" version="1.1" xmlns:xlink="http://www.w3.org/1999/xlink" xmlns:svgjs="http://svgjs.dev/svgjs" width="2000" height="1500" viewBox="0 0 2000 1500"><rect width="2000" height="1500" fill="#ffffff"></rect><g transform="matrix(0.75,0,0,0.75,250,281.25)"><svg viewBox="0 0 512 320" data-background-color="#ffffff" preserveAspectRatio="xMidYMid meet" height="1250" width="2000" xmlns="http://www.w3.org/2000/svg" xmlns:xlink="http://www.w3.org/1999/xlink"><g id="tight-bounds" transform="matrix(1,0,0,1,0,0)"><svg viewBox="0 0 512 320" height="320" width="512"><g><svg></svg></g><g><svg viewBox="0 0 512 320" height="320" width="512"><g><path d="M96 160c0-88.366 71.634-160 160-160 88.366 0 160 71.634 160 160 0 88.366-71.634 160-160 160-88.366 0-160-71.634-160-160z" fill="#1225e6" fill-rule="nonzero" stroke="none" stroke-width="1" stroke-linecap="butt" stroke-linejoin="miter" stroke-miterlimit="10" stroke-dasharray="" stroke-dashoffset="0" font-family="none" font-weight="none" font-size="none" text-anchor="none" style="mix-blend-mode: normal" data-fill-palette-color="tertiary"></path></g><g transform="matrix(1,0,0,1,153.60000000000002,141.66197751750096)"><svg viewBox="0 0 204.79999999999998 36.676044964998106" height="36.676044964998106" width="204.79999999999998"><g><svg viewBox="0 0 204.80000000000004 36.67604496499811" height="36.676044964998106" width="204.79999999999998"><g><svg viewBox="0 0 204.80000000000004 36.67604496499811" height="36.67604496499811" width="204.80000000000004"><g id="textblocktransform"><svg viewBox="0 0 204.80000000000004 36.67604496499811" height="36.67604496499811" width="204.80000000000004" id="textblock"><g><svg viewBox="0 0 204.80000000000004 18.735364865706988" height="18.735364865706988" width="204.80000000000004"><g transform="matrix(1,0,0,1,0,0)"><svg width="204.80000000000004" viewBox="0.68 -35.35 391.73 35.84" height="18.735364865706988" data-palette-color="#ffffff"><path d="M10.47 0.49L10.47 0.49Q7.81 0.49 5.57-0.88L5.57-0.88Q3.34-2.25 2.01-4.53 0.68-6.81 0.68-9.55L0.68-9.55 0.68-11.84Q0.68-12.11 0.93-12.11L0.93-12.11 6.54-12.11Q6.74-12.11 6.74-11.84L6.74-11.84 6.74-9.55Q6.74-7.91 7.84-6.73 8.94-5.54 10.47-5.54L10.47-5.54Q12.04-5.54 13.13-6.75 14.23-7.96 14.23-9.55L14.23-9.55Q14.23-11.38 11.84-12.74L11.84-12.74Q11.45-12.99 10.83-13.34 10.21-13.7 9.35-14.16L9.35-14.16Q8.5-14.62 7.69-15.08 6.88-15.53 6.13-15.94L6.13-15.94Q3.39-17.55 2.06-19.98 0.73-22.41 0.73-25.44L0.73-25.44Q0.73-28.22 2.1-30.47L2.1-30.47Q3.47-32.69 5.68-34 7.89-35.3 10.47-35.3L10.47-35.3Q13.13-35.3 15.36-33.98L15.36-33.98Q17.58-32.64 18.91-30.42 20.24-28.2 20.24-25.44L20.24-25.44 20.24-21.34Q20.24-21.14 20.04-21.14L20.04-21.14 14.43-21.14Q14.23-21.14 14.23-21.34L14.23-21.34 14.18-25.44Q14.18-27.2 13.09-28.3 11.99-29.39 10.47-29.39L10.47-29.39Q8.94-29.39 7.84-28.22 6.74-27.05 6.74-25.44L6.74-25.44Q6.74-23.8 7.43-22.71 8.13-21.61 9.99-20.61L9.99-20.61Q10.18-20.51 10.89-20.12 11.6-19.73 12.46-19.25 13.33-18.77 14.04-18.4 14.75-18.02 14.89-17.94L14.89-17.94Q17.38-16.55 18.84-14.53 20.29-12.5 20.29-9.55L20.29-9.55Q20.29-6.69 18.97-4.42L18.97-4.42Q17.63-2.15 15.41-0.83 13.18 0.49 10.47 0.49ZM33.01 0.49L33.01 0.49Q30.34 0.49 28.1-0.88L28.1-0.88Q25.88-2.25 24.52-4.53 23.17-6.81 23.17-9.55L23.17-9.55 23.22-25.39Q23.22-28.17 24.56-30.4L24.56-30.4Q25.88-32.64 28.12-34 30.37-35.35 33.01-35.35L33.01-35.35Q35.74-35.35 37.91-34.01L37.91-34.01Q40.11-32.67 41.44-30.41 42.77-28.15 42.77-25.39L42.77-25.39 42.82-9.55Q42.82-6.81 41.5-4.54L41.5-4.54Q40.16-2.25 37.94-0.88 35.72 0.49 33.01 0.49ZM33.01-5.54L33.01-5.54Q34.52-5.54 35.64-6.77 36.77-8.01 36.77-9.55L36.77-9.55 36.72-25.39Q36.72-27.05 35.67-28.2 34.62-29.35 33.01-29.35L33.01-29.35Q31.47-29.35 30.37-28.22 29.27-27.1 29.27-25.39L29.27-25.39 29.27-9.55Q29.27-7.91 30.37-6.73 31.47-5.54 33.01-5.54ZM52.44 0L52.44 0 46.82 0Q46.58 0 46.58-0.24L46.58-0.24 46.67-34.59Q46.67-34.79 46.87-34.79L46.87-34.79 62.89-34.79Q63.13-34.79 63.13-34.59L63.13-34.59 63.13-28.96Q63.13-28.76 62.93-28.76L62.93-28.76 52.68-28.76 52.68-21 62.93-21Q63.13-21 63.13-20.75L63.13-20.75 63.18-15.09Q63.18-14.89 62.93-14.89L62.93-14.89 52.68-14.89 52.68-0.24Q52.68 0 52.44 0ZM78.29 0L78.29 0 72.65 0Q72.43 0 72.43-0.24L72.43-0.24 72.43-28.76 65.93-28.76Q65.69-28.76 65.69-29L65.69-29 65.74-34.59Q65.74-34.79 65.93-34.79L65.93-34.79 84.93-34.79Q85.2-34.79 85.2-34.59L85.2-34.59 85.2-29Q85.2-28.76 85-28.76L85-28.76 78.43-28.76 78.48-0.24Q78.48 0 78.29 0ZM99.28 0L99.28 0 93.23 0Q93.01 0 92.98-0.24L92.98-0.24 86.07-34.59Q86.03-34.79 86.27-34.79L86.27-34.79 91.93-34.79Q92.13-34.79 92.18-34.59L92.18-34.59 96.28-11.69 100.28-34.59Q100.33-34.79 100.53-34.79L100.53-34.79 106.12-34.79Q106.39-34.79 106.31-34.59L106.31-34.59 99.53-0.24Q99.5 0 99.28 0ZM115.15 0L115.15 0 109.48 0Q109.24 0 109.24-0.24L109.24-0.24 109.29-34.59Q109.29-34.79 109.48-34.79L109.48-34.79 115.1-34.79Q115.3-34.79 115.3-34.59L115.3-34.59 115.34-0.24Q115.34 0 115.15 0ZM136.09 0L136.09 0 119.93 0Q119.74 0 119.74-0.24L119.74-0.24 119.78-34.59Q119.78-34.79 119.98-34.79L119.98-34.79 136.04-34.79Q136.24-34.79 136.24-34.55L136.24-34.55 136.24-28.96Q136.24-28.76 136.04-28.76L136.04-28.76 125.79-28.76 125.79-20.95 136.04-20.95Q136.24-20.95 136.24-20.75L136.24-20.75 136.29-15.09Q136.29-14.89 136.09-14.89L136.09-14.89 125.79-14.89 125.79-6.15 136.09-6.15Q136.29-6.15 136.29-5.91L136.29-5.91 136.29-0.2Q136.29 0 136.09 0ZM151.4 0L151.4 0 145.34 0Q145.12 0 145.1-0.24L145.1-0.24 139.19-34.59Q139.14-34.79 139.34-34.79L139.34-34.79 144.95-34.79Q145.15-34.79 145.2-34.59L145.2-34.59 148.4-12.01 151.69-34.59Q151.74-34.79 151.98-34.79L151.98-34.79 156.5-34.79Q156.7-34.79 156.75-34.59L156.75-34.59 159.99-12.01 163.24-34.59Q163.29-34.79 163.48-34.79L163.48-34.79 169.05-34.79Q169.29-34.79 169.25-34.59L169.25-34.59 163.29-0.24Q163.26-0.15 163.14-0.07L163.14-0.07 163.04 0 156.99 0Q156.84 0 156.75-0.24L156.75-0.24 154.18-18.19 151.64-0.24Q151.62 0 151.4 0ZM183.47-0.24L183.47-0.24 189.67-34.59Q189.72-34.79 189.92-34.79L189.92-34.79 197.17-34.79Q197.37-34.79 197.41-34.59L197.41-34.59 203.37-0.24Q203.4 0 203.18 0L203.18 0 197.63 0Q197.39 0 197.37-0.24L197.37-0.24 196.83-3.91 190.02-3.91 189.48-0.24Q189.46 0 189.24 0L189.24 0 183.67 0Q183.47 0 183.47-0.24ZM195.83-9.25L193.78-23.29 193.48-25.15 193.26-23.29 191.02-9.25 195.83-9.25ZM214.7 0.49L214.7 0.49Q211.99 0.49 209.74-0.88L209.74-0.88Q207.52-2.25 206.21-4.55 204.91-6.86 204.91-9.69L204.91-9.69 204.96-25.29Q204.96-28.08 206.23-30.32L206.23-30.32Q207.49-32.59 209.73-33.97 211.96-35.35 214.7-35.35L214.7-35.35Q217.48-35.35 219.65-34.01L219.65-34.01Q221.85-32.67 223.16-30.38 224.46-28.1 224.46-25.29L224.46-25.29 224.46-23Q224.46-22.8 224.27-22.8L224.27-22.8 218.65-22.8Q218.46-22.8 218.46-23L218.46-23 218.46-25.29Q218.46-26.95 217.38-28.15 216.31-29.35 214.7-29.35L214.7-29.35Q212.91-29.35 211.96-28.13 211.01-26.9 211.01-25.29L211.01-25.29 211.01-9.69Q211.01-7.86 212.08-6.7 213.16-5.54 214.7-5.54L214.7-5.54Q216.31-5.54 217.38-6.82 218.46-8.11 218.46-9.69L218.46-9.69 218.46-12.01Q218.46-12.21 218.65-12.21L218.65-12.21 224.32-12.21Q224.51-12.21 224.51-12.01L224.51-12.01 224.51-9.69Q224.51-6.88 223.19-4.57L223.19-4.57Q221.85-2.27 219.65-0.89 217.46 0.49 214.7 0.49ZM237.33 0.49L237.33 0.49Q234.62 0.49 232.37-0.88L232.37-0.88Q230.15-2.25 228.84-4.55 227.54-6.86 227.54-9.69L227.54-9.69 227.58-25.29Q227.58-28.08 228.85-30.32L228.85-30.32Q230.12-32.59 232.36-33.97 234.59-35.35 237.33-35.35L237.33-35.35Q240.11-35.35 242.28-34.01L242.28-34.01Q244.48-32.67 245.79-30.38 247.09-28.1 247.09-25.29L247.09-25.29 247.09-23Q247.09-22.8 246.9-22.8L246.9-22.8 241.28-22.8Q241.09-22.8 241.09-23L241.09-23 241.09-25.29Q241.09-26.95 240.01-28.15 238.94-29.35 237.33-29.35L237.33-29.35Q235.54-29.35 234.59-28.13 233.64-26.9 233.64-25.29L233.64-25.29 233.64-9.69Q233.64-7.86 234.71-6.7 235.79-5.54 237.33-5.54L237.33-5.54Q238.94-5.54 240.01-6.82 241.09-8.11 241.09-9.69L241.09-9.69 241.09-12.01Q241.09-12.21 241.28-12.21L241.28-12.21 246.95-12.21Q247.14-12.21 247.14-12.01L247.14-12.01 247.14-9.69Q247.14-6.88 245.82-4.57L245.82-4.57Q244.48-2.27 242.28-0.89 240.08 0.49 237.33 0.49ZM260 0.49L260 0.49Q257.34 0.49 255.1-0.88L255.1-0.88Q252.88-2.25 251.52-4.53 250.17-6.81 250.17-9.55L250.17-9.55 250.21-25.39Q250.21-28.17 251.56-30.4L251.56-30.4Q252.88-32.64 255.12-34 257.37-35.35 260-35.35L260-35.35Q262.74-35.35 264.91-34.01L264.91-34.01Q267.11-32.67 268.44-30.41 269.77-28.15 269.77-25.39L269.77-25.39 269.82-9.55Q269.82-6.81 268.5-4.54L268.5-4.54Q267.16-2.25 264.94-0.88 262.71 0.49 260 0.49ZM260-5.54L260-5.54Q261.52-5.54 262.64-6.77 263.76-8.01 263.76-9.55L263.76-9.55 263.72-25.39Q263.72-27.05 262.67-28.2 261.62-29.35 260-29.35L260-29.35Q258.47-29.35 257.37-28.22 256.27-27.1 256.27-25.39L256.27-25.39 256.27-9.55Q256.27-7.91 257.37-6.73 258.47-5.54 260-5.54ZM282.78 0.49L282.78 0.49Q280.14 0.49 277.9-0.88L277.9-0.88Q275.65-2.25 274.32-4.55 272.99-6.86 272.99-9.59L272.99-9.59 273.09-34.59Q273.09-34.79 273.28-34.79L273.28-34.79 278.9-34.79Q279.09-34.79 279.09-34.59L279.09-34.59 279.09-9.59Q279.09-7.91 280.17-6.73 281.24-5.54 282.78-5.54L282.78-5.54Q284.39-5.54 285.47-6.73 286.54-7.91 286.54-9.59L286.54-9.59 286.54-34.59Q286.54-34.79 286.74-34.79L286.74-34.79 292.35-34.79Q292.55-34.79 292.55-34.59L292.55-34.59 292.64-9.59Q292.64-6.84 291.32-4.52L291.32-4.52Q289.98-2.22 287.76-0.87 285.54 0.49 282.78 0.49ZM302.02 0L302.02 0 297.01 0Q296.62 0 296.62-0.34L296.62-0.34 296.57-34.4Q296.57-34.79 296.96-34.79L296.96-34.79 301.48-34.79 309.93-15.09 309.68-34.4Q309.68-34.79 310.12-34.79L310.12-34.79 315.08-34.79Q315.37-34.79 315.37-34.4L315.37-34.4 315.42-0.29Q315.42 0 315.17 0L315.17 0 310.78 0 302.11-18.41 302.48-0.39Q302.48 0 302.02 0ZM330.43 0L330.43 0 324.79 0Q324.57 0 324.57-0.24L324.57-0.24 324.57-28.76 318.08-28.76Q317.83-28.76 317.83-29L317.83-29 317.88-34.59Q317.88-34.79 318.08-34.79L318.08-34.79 337.07-34.79Q337.34-34.79 337.34-34.59L337.34-34.59 337.34-29Q337.34-28.76 337.15-28.76L337.15-28.76 330.58-28.76 330.63-0.24Q330.63 0 330.43 0ZM345.66 0L345.66 0 340 0Q339.75 0 339.75-0.24L339.75-0.24 339.8-34.59Q339.8-34.79 340-34.79L340-34.79 345.61-34.79Q345.81-34.79 345.81-34.59L345.81-34.59 345.86-0.24Q345.86 0 345.66 0ZM355.69 0L355.69 0 350.69 0Q350.3 0 350.3-0.34L350.3-0.34 350.25-34.4Q350.25-34.79 350.64-34.79L350.64-34.79 355.16-34.79 363.6-15.09 363.36-34.4Q363.36-34.79 363.8-34.79L363.8-34.79 368.76-34.79Q369.05-34.79 369.05-34.4L369.05-34.4 369.1-0.29Q369.1 0 368.85 0L368.85 0 364.46 0 355.79-18.41 356.16-0.39Q356.16 0 355.69 0ZM382.6 0.49L382.6 0.49Q379.89 0.49 377.71-0.85L377.71-0.85Q375.52-2.2 374.19-4.47 372.86-6.74 372.86-9.55L372.86-9.55 372.86-25.39Q372.86-28.13 374.2-30.37L374.2-30.37Q375.52-32.64 377.74-34 379.96-35.35 382.6-35.35L382.6-35.35Q385.36-35.35 387.58-34.03L387.58-34.03Q389.8-32.69 391.1-30.44 392.41-28.2 392.41-25.39L392.41-25.39 392.41-23.1Q392.41-22.9 392.17-22.9L392.17-22.9 386.55-22.9Q386.36-22.9 386.36-23.1L386.36-23.1 386.36-25Q386.36-26.9 385.28-28.15 384.21-29.39 382.6-29.39L382.6-29.39Q381.16-29.39 380.03-28.2 378.91-27 378.91-25.39L378.91-25.39 378.91-9.55Q378.91-7.91 380.01-6.73 381.11-5.54 382.6-5.54L382.6-5.54Q384.21-5.54 385.28-6.7 386.36-7.86 386.36-9.55L386.36-9.55 386.36-12.01 382.87-12.01Q382.6-12.01 382.6-12.26L382.6-12.26 382.6-17.85Q382.6-18.09 382.87-18.09L382.87-18.09 392.22-18.09Q392.41-18.09 392.41-17.85L392.41-17.85 392.41-9.55Q392.41-6.74 391.09-4.47L391.09-4.47Q389.75-2.2 387.55-0.85 385.36 0.49 382.6 0.49Z" opacity="1" transform="matrix(1,0,0,1,0,0)" fill="#ffffff" class="wordmark-text-0" data-fill-palette-color="quaternary" id="text-0"></path></svg></g></svg></g><g transform="matrix(1,0,0,1,0,23.15833486174363)"><svg viewBox="0 0 204.80000000000004 13.517710103254482" height="13.517710103254482" width="204.80000000000004"><g transform="matrix(1,0,0,1,0,0)"><svg width="204.80000000000004" viewBox="3 -39.65 765 50.5" height="13.517710103254482" data-palette-color="#ffffff"><path d="M17.05-18.3Q20.4-17.55 22.33-15.63 24.25-13.7 24.25-9.9L24.25-9.9Q24.25-4.9 20.88-2.45 17.5 0 11.7 0L11.7 0 3 0 3-34.55 10.55-34.55Q16.5-34.55 19.75-32.3 23-30.05 23-25.75L23-25.75Q23-22.85 21.38-20.95 19.75-19.05 17.05-18.3L17.05-18.3ZM11.2-29.85L9.35-29.85 9.35-20.3 11.5-20.3Q16.55-20.3 16.55-25.2L16.55-25.2Q16.55-27.65 15.28-28.75 14-29.85 11.2-29.85L11.2-29.85ZM11.75-4.8Q14.65-4.8 16.15-6.03 17.65-7.25 17.65-10.15L17.65-10.15Q17.65-13.05 16.25-14.43 14.85-15.8 11.9-15.8L11.9-15.8 9.35-15.8 9.35-4.8 11.75-4.8ZM45.15-6.4Q45.15-5.1 45.5-4.48 45.85-3.85 46.65-3.45L46.65-3.45 45.4 0.65Q43.35 0.4 42.12-0.45 40.9-1.3 40.3-3.05L40.3-3.05Q38 0.75 33.85 0.75L33.85 0.75Q30.55 0.75 28.6-1.48 26.65-3.7 26.65-7.4L26.65-7.4Q26.65-11.7 29.32-13.95 32-16.2 37.1-16.2L37.1-16.2 39.15-16.2 39.15-18.05Q39.15-20.55 38.27-21.58 37.4-22.6 35.45-22.6L35.45-22.6Q33.1-22.6 29.6-21.3L29.6-21.3 28.2-25.3Q30.2-26.2 32.35-26.68 34.5-27.15 36.45-27.15L36.45-27.15Q45.15-27.15 45.15-18.35L45.15-18.35 45.15-6.4ZM35.5-3.7Q37.9-3.7 39.15-7L39.15-7 39.15-12.55 37.7-12.55Q35.15-12.55 33.97-11.4 32.8-10.25 32.8-7.85L32.8-7.85Q32.8-5.8 33.5-4.75 34.2-3.7 35.5-3.7L35.5-3.7ZM56.55 0.75Q53.85 0.75 52.27-0.93 50.7-2.6 50.7-5.4L50.7-5.4 50.7-37.05 56.85-37.7 56.85-5.65Q56.85-5 57.15-4.6 57.45-4.2 58.05-4.2L58.05-4.2Q58.4-4.2 58.72-4.3 59.05-4.4 59.15-4.4L59.15-4.4 60.35-0.2Q58.65 0.75 56.55 0.75L56.55 0.75ZM80.29-6.4Q80.29-5.1 80.64-4.48 80.99-3.85 81.79-3.45L81.79-3.45 80.54 0.65Q78.49 0.4 77.27-0.45 76.04-1.3 75.44-3.05L75.44-3.05Q73.14 0.75 68.99 0.75L68.99 0.75Q65.69 0.75 63.74-1.48 61.79-3.7 61.79-7.4L61.79-7.4Q61.79-11.7 64.47-13.95 67.14-16.2 72.24-16.2L72.24-16.2 74.29-16.2 74.29-18.05Q74.29-20.55 73.42-21.58 72.54-22.6 70.59-22.6L70.59-22.6Q68.24-22.6 64.74-21.3L64.74-21.3 63.34-25.3Q65.34-26.2 67.49-26.68 69.64-27.15 71.59-27.15L71.59-27.15Q80.29-27.15 80.29-18.35L80.29-18.35 80.29-6.4ZM70.64-3.7Q73.04-3.7 74.29-7L74.29-7 74.29-12.55 72.84-12.55Q70.29-12.55 69.12-11.4 67.94-10.25 67.94-7.85L67.94-7.85Q67.94-5.8 68.64-4.75 69.34-3.7 70.64-3.7L70.64-3.7ZM98.44-27.15Q101.29-27.15 102.94-25.1 104.59-23.05 104.59-19.6L104.59-19.6 104.59 0 98.44 0 98.44-18.9Q98.44-20.8 97.92-21.63 97.39-22.45 96.39-22.45L96.39-22.45Q94.29-22.45 92.24-18.5L92.24-18.5 92.24 0 86.09 0 86.09-26.45 91.44-26.45 91.89-23Q93.24-25.1 94.77-26.13 96.29-27.15 98.44-27.15L98.44-27.15ZM119.64-27.15Q121.79-27.15 123.54-26.43 125.29-25.7 126.89-24.15L126.89-24.15 124.24-20.65Q123.14-21.55 122.16-21.98 121.19-22.4 120.04-22.4L120.04-22.4Q117.79-22.4 116.64-20.28 115.49-18.15 115.49-13.1L115.49-13.1Q115.49-8.2 116.66-6.2 117.84-4.2 120.04-4.2L120.04-4.2Q121.14-4.2 122.04-4.6 122.94-5 124.14-5.85L124.14-5.85 126.89-2.3Q123.69 0.75 119.74 0.75L119.74 0.75Q114.64 0.75 111.81-2.73 108.99-6.2 108.99-13L108.99-13Q108.99-17.4 110.29-20.6 111.59-23.8 114.01-25.48 116.44-27.15 119.64-27.15L119.64-27.15ZM129.94-26.45L136.09-26.45 136.09 0 129.94 0 129.94-26.45ZM132.99-39.65Q134.64-39.65 135.66-38.6 136.69-37.55 136.69-35.9L136.69-35.9Q136.69-34.3 135.66-33.25 134.64-32.2 132.99-32.2L132.99-32.2Q131.34-32.2 130.31-33.25 129.28-34.3 129.28-35.9L129.28-35.9Q129.28-37.55 130.31-38.6 131.34-39.65 132.99-39.65L132.99-39.65ZM154.13-27.15Q156.98-27.15 158.63-25.1 160.28-23.05 160.28-19.6L160.28-19.6 160.28 0 154.13 0 154.13-18.9Q154.13-20.8 153.61-21.63 153.08-22.45 152.08-22.45L152.08-22.45Q149.98-22.45 147.93-18.5L147.93-18.5 147.93 0 141.78 0 141.78-26.45 147.13-26.45 147.58-23Q148.93-25.1 150.46-26.13 151.98-27.15 154.13-27.15L154.13-27.15ZM183.78-29.85L185.33-25.1Q184.28-24.6 182.81-24.4 181.33-24.2 179.13-24.2L179.13-24.2Q181.23-23.2 182.26-21.53 183.28-19.85 183.28-17.4L183.28-17.4Q183.28-13.4 180.83-10.95 178.38-8.5 174.18-8.5L174.18-8.5Q172.93-8.5 171.63-8.9L171.63-8.9Q170.73-8.15 170.73-6.85L170.73-6.85Q170.73-5.85 171.28-5.35 171.83-4.85 173.33-4.85L173.33-4.85 176.13-4.85Q180.13-4.85 182.48-2.78 184.83-0.7 184.83 2.5L184.83 2.5Q184.83 6.3 181.91 8.58 178.98 10.85 173.58 10.85L173.58 10.85Q167.88 10.85 165.61 8.75 163.33 6.65 163.33 2.6L163.33 2.6 168.78 2.6Q168.78 4.75 169.78 5.65 170.78 6.55 173.63 6.55L173.63 6.55Q176.38 6.55 177.53 5.6 178.68 4.65 178.68 2.9L178.68 2.9Q178.68 1.2 177.73 0.4 176.78-0.4 174.78-0.4L174.78-0.4 172.88-0.4Q169.08-0.4 167.33-1.75 165.58-3.1 165.58-5.45L165.58-5.45Q165.58-6.8 166.31-8.03 167.03-9.25 168.28-10.2L168.28-10.2Q166.23-11.5 165.28-13.3 164.33-15.1 164.33-17.7L164.33-17.7Q164.33-22.05 166.93-24.58 169.53-27.1 173.93-27.1L173.93-27.1Q177.18-27.1 179.31-27.8 181.43-28.5 183.78-29.85L183.78-29.85ZM173.93-23Q172.18-23 171.28-21.75 170.38-20.5 170.38-17.8L170.38-17.8Q170.38-15.25 171.28-13.88 172.18-12.5 173.88-12.5L173.88-12.5Q175.63-12.5 176.48-13.73 177.33-14.95 177.33-17.85L177.33-17.85Q177.33-20.55 176.51-21.78 175.68-23 173.93-23L173.93-23ZM212.93-34.55L219.43-34.55 210.33-13.15 210.33 0 203.93 0 203.93-13.1 194.83-34.55 201.58-34.55 207.23-18.3 212.93-34.55ZM231.42-27.15Q236.42-27.15 239.2-23.65 241.97-20.15 241.97-13.25L241.97-13.25Q241.97-6.65 239.17-2.95 236.37 0.75 231.42 0.75L231.42 0.75Q226.47 0.75 223.67-2.88 220.87-6.5 220.87-13.25L220.87-13.25Q220.87-19.95 223.67-23.55 226.47-27.15 231.42-27.15L231.42-27.15ZM231.42-22.5Q229.27-22.5 228.27-20.38 227.27-18.25 227.27-13.25L227.27-13.25Q227.27-8.2 228.27-6.08 229.27-3.95 231.42-3.95L231.42-3.95Q233.57-3.95 234.57-6.08 235.57-8.2 235.57-13.25L235.57-13.25Q235.57-18.3 234.57-20.4 233.57-22.5 231.42-22.5L231.42-22.5ZM264.67-26.45L264.67 0 259.32 0 259.02-3.35Q257.77-1.3 256.22-0.28 254.67 0.75 252.62 0.75L252.62 0.75Q249.72 0.75 248.05-1.3 246.37-3.35 246.37-6.65L246.37-6.65 246.37-26.45 252.52-26.45 252.52-7Q252.52-3.9 254.62-3.9L254.62-3.9Q255.82-3.9 256.77-4.83 257.72-5.75 258.52-7.45L258.52-7.45 258.52-26.45 264.67-26.45ZM282.02-27.1Q283.17-27.1 284.07-26.75L284.07-26.75 283.07-20.85Q282.07-21.1 281.22-21.1L281.22-21.1Q279.32-21.1 278.22-19.45 277.12-17.8 276.52-14.55L276.52-14.55 276.52 0 270.37 0 270.37-26.45 275.72-26.45 276.17-21.85Q278.02-27.1 282.02-27.1L282.02-27.1ZM305.66-35.25Q308.66-35.25 310.96-34.2 313.26-33.15 315.21-31.05L315.21-31.05 312.26-27.65Q310.71-29.05 309.24-29.75 307.76-30.45 306.11-30.45L306.11-30.45Q304.21-30.45 303.11-29.28 302.01-28.1 302.01-26.2L302.01-26.2Q302.01-24.3 303.16-23.1 304.31-21.9 307.66-20.6L307.66-20.6Q311.96-18.85 313.99-16.5 316.01-14.15 316.01-9.85L316.01-9.85Q316.01-6.9 314.66-4.48 313.31-2.05 310.79-0.65 308.26 0.75 304.91 0.75L304.91 0.75Q301.46 0.75 298.91-0.48 296.36-1.7 294.26-3.95L294.26-3.95 297.46-7.45Q299.26-5.85 300.91-5 302.56-4.15 304.51-4.15L304.51-4.15Q306.81-4.15 308.09-5.58 309.36-7 309.36-9.45L309.36-9.45Q309.36-11.6 308.24-12.98 307.11-14.35 304.06-15.5L304.06-15.5Q299.46-17.35 297.44-19.75 295.41-22.15 295.41-25.75L295.41-25.75Q295.41-28.5 296.74-30.65 298.06-32.8 300.41-34.02 302.76-35.25 305.66-35.25L305.66-35.25ZM338.16-26.45L338.16 0 332.81 0 332.51-3.35Q331.26-1.3 329.71-0.28 328.16 0.75 326.11 0.75L326.11 0.75Q323.21 0.75 321.54-1.3 319.86-3.35 319.86-6.65L319.86-6.65 319.86-26.45 326.01-26.45 326.01-7Q326.01-3.9 328.11-3.9L328.11-3.9Q329.31-3.9 330.26-4.83 331.21-5.75 332.01-7.45L332.01-7.45 332.01-26.45 338.16-26.45ZM353.36-27.15Q355.51-27.15 357.26-26.43 359.01-25.7 360.61-24.15L360.61-24.15 357.96-20.65Q356.86-21.55 355.88-21.98 354.91-22.4 353.76-22.4L353.76-22.4Q351.51-22.4 350.36-20.28 349.21-18.15 349.21-13.1L349.21-13.1Q349.21-8.2 350.38-6.2 351.56-4.2 353.76-4.2L353.76-4.2Q354.86-4.2 355.76-4.6 356.66-5 357.86-5.85L357.86-5.85 360.61-2.3Q357.41 0.75 353.46 0.75L353.46 0.75Q348.36 0.75 345.53-2.73 342.71-6.2 342.71-13L342.71-13Q342.71-17.4 344.01-20.6 345.31-23.8 347.73-25.48 350.16-27.15 353.36-27.15L353.36-27.15ZM373.16-27.15Q375.31-27.15 377.06-26.43 378.81-25.7 380.41-24.15L380.41-24.15 377.76-20.65Q376.66-21.55 375.68-21.98 374.71-22.4 373.56-22.4L373.56-22.4Q371.31-22.4 370.16-20.28 369.01-18.15 369.01-13.1L369.01-13.1Q369.01-8.2 370.18-6.2 371.36-4.2 373.56-4.2L373.56-4.2Q374.66-4.2 375.56-4.6 376.46-5 377.66-5.85L377.66-5.85 380.41-2.3Q377.21 0.75 373.26 0.75L373.26 0.75Q368.16 0.75 365.33-2.73 362.51-6.2 362.51-13L362.51-13Q362.51-17.4 363.81-20.6 365.11-23.8 367.53-25.48 369.96-27.15 373.16-27.15L373.16-27.15ZM402.3-13.85Q402.3-13.4 402.15-11.3L402.15-11.3 388.5-11.3Q388.7-7.2 389.93-5.58 391.15-3.95 393.4-3.95L393.4-3.95Q394.95-3.95 396.2-4.48 397.45-5 398.9-6.15L398.9-6.15 401.45-2.65Q397.95 0.75 393.05 0.75L393.05 0.75Q387.85 0.75 385.08-2.85 382.3-6.45 382.3-13L382.3-13Q382.3-19.55 384.95-23.35 387.6-27.15 392.45-27.15L392.45-27.15Q397.1-27.15 399.7-23.78 402.3-20.4 402.3-13.85L402.3-13.85ZM396.3-15.3L396.3-15.65Q396.3-19.4 395.4-21.13 394.5-22.85 392.5-22.85L392.5-22.85Q390.65-22.85 389.68-21.18 388.7-19.5 388.5-15.3L388.5-15.3 396.3-15.3ZM413.95-27.15Q418.65-27.15 421.9-24.05L421.9-24.05 419.55-20.7Q418.15-21.7 416.9-22.2 415.65-22.7 414.35-22.7L414.35-22.7Q412.9-22.7 412.08-21.93 411.25-21.15 411.25-19.8L411.25-19.8Q411.25-18.45 412.18-17.63 413.1-16.8 415.9-15.7L415.9-15.7Q419.35-14.35 421-12.5 422.65-10.65 422.65-7.55L422.65-7.55Q422.65-3.7 419.95-1.48 417.25 0.75 413.1 0.75L413.1 0.75Q410.4 0.75 408.13-0.23 405.85-1.2 404.15-2.95L404.15-2.95 407.15-6.25Q409.95-3.8 412.85-3.8L412.85-3.8Q414.5-3.8 415.45-4.67 416.4-5.55 416.4-7.1L416.4-7.1Q416.4-8.25 416-8.97 415.6-9.7 414.6-10.33 413.6-10.95 411.6-11.7L411.6-11.7Q408.15-13.05 406.68-14.85 405.2-16.65 405.2-19.45L405.2-19.45Q405.2-22.8 407.58-24.98 409.95-27.15 413.95-27.15L413.95-27.15ZM433.85-27.15Q438.55-27.15 441.8-24.05L441.8-24.05 439.45-20.7Q438.05-21.7 436.8-22.2 435.55-22.7 434.25-22.7L434.25-22.7Q432.8-22.7 431.97-21.93 431.15-21.15 431.15-19.8L431.15-19.8Q431.15-18.45 432.07-17.63 433-16.8 435.8-15.7L435.8-15.7Q439.25-14.35 440.9-12.5 442.55-10.65 442.55-7.55L442.55-7.55Q442.55-3.7 439.85-1.48 437.15 0.75 433 0.75L433 0.75Q430.3 0.75 428.02-0.23 425.75-1.2 424.05-2.95L424.05-2.95 427.05-6.25Q429.85-3.8 432.75-3.8L432.75-3.8Q434.4-3.8 435.35-4.67 436.3-5.55 436.3-7.1L436.3-7.1Q436.3-8.25 435.9-8.97 435.5-9.7 434.5-10.33 433.5-10.95 431.5-11.7L431.5-11.7Q428.05-13.05 426.57-14.85 425.1-16.65 425.1-19.45L425.1-19.45Q425.1-22.8 427.47-24.98 429.85-27.15 433.85-27.15L433.85-27.15ZM448.9-7.05Q450.6-7.05 451.65-5.9 452.7-4.75 452.7-3.15L452.7-3.15Q452.7-1.55 451.65-0.4 450.6 0.75 448.9 0.75L448.9 0.75Q447.25 0.75 446.17-0.4 445.1-1.55 445.1-3.15L445.1-3.15Q445.1-4.75 446.17-5.9 447.25-7.05 448.9-7.05L448.9-7.05ZM448.9-24.85Q450.6-24.85 451.65-23.7 452.7-22.55 452.7-20.95L452.7-20.95Q452.7-19.35 451.65-18.2 450.6-17.05 448.9-17.05L448.9-17.05Q447.25-17.05 446.17-18.2 445.1-19.35 445.1-20.95L445.1-20.95Q445.1-22.55 446.17-23.7 447.25-24.85 448.9-24.85L448.9-24.85ZM475.89-35.25Q478.89-35.25 481.19-34.2 483.49-33.15 485.44-31.05L485.44-31.05 482.49-27.65Q480.94-29.05 479.47-29.75 477.99-30.45 476.34-30.45L476.34-30.45Q474.44-30.45 473.34-29.28 472.24-28.1 472.24-26.2L472.24-26.2Q472.24-24.3 473.39-23.1 474.54-21.9 477.89-20.6L477.89-20.6Q482.19-18.85 484.22-16.5 486.24-14.15 486.24-9.85L486.24-9.85Q486.24-6.9 484.89-4.48 483.54-2.05 481.02-0.65 478.49 0.75 475.14 0.75L475.14 0.75Q471.69 0.75 469.14-0.48 466.59-1.7 464.49-3.95L464.49-3.95 467.69-7.45Q469.49-5.85 471.14-5 472.79-4.15 474.74-4.15L474.74-4.15Q477.04-4.15 478.32-5.58 479.59-7 479.59-9.45L479.59-9.45Q479.59-11.6 478.47-12.98 477.34-14.35 474.29-15.5L474.29-15.5Q469.69-17.35 467.67-19.75 465.64-22.15 465.64-25.75L465.64-25.75Q465.64-28.5 466.97-30.65 468.29-32.8 470.64-34.02 472.99-35.25 475.89-35.25L475.89-35.25ZM490.24-26.45L496.39-26.45 496.39 0 490.24 0 490.24-26.45ZM493.29-39.65Q494.94-39.65 495.96-38.6 496.99-37.55 496.99-35.9L496.99-35.9Q496.99-34.3 495.96-33.25 494.94-32.2 493.29-32.2L493.29-32.2Q491.64-32.2 490.61-33.25 489.59-34.3 489.59-35.9L489.59-35.9Q489.59-37.55 490.61-38.6 491.64-39.65 493.29-39.65L493.29-39.65ZM525.74-27.15Q528.39-27.15 529.99-25.1 531.59-23.05 531.59-19.6L531.59-19.6 531.59 0 525.54 0 525.54-18.95Q525.54-20.85 525.04-21.68 524.54-22.5 523.59-22.5L523.59-22.5Q521.64-22.5 519.84-18.8L519.84-18.8 519.84 0 513.84 0 513.84-18.95Q513.84-22.5 511.94-22.5L511.94-22.5Q509.89-22.5 508.14-18.8L508.14-18.8 508.14 0 502.09 0 502.09-26.45 507.44-26.45 507.84-23.05Q510.44-27.15 514.09-27.15L514.09-27.15Q515.94-27.15 517.29-26 518.64-24.85 519.34-22.75L519.34-22.75Q521.99-27.15 525.74-27.15L525.74-27.15ZM549.28-27.15Q553.18-27.15 555.18-23.58 557.18-20 557.18-13.3L557.18-13.3Q557.18-6.8 554.91-3.03 552.63 0.75 548.58 0.75L548.58 0.75Q545.38 0.75 543.23-2.1L543.23-2.1 543.23 10.15 537.08 10.85 537.08-26.45 542.53-26.45 542.78-23.25Q544.08-25.25 545.68-26.2 547.28-27.15 549.28-27.15L549.28-27.15ZM546.93-3.95Q548.83-3.95 549.83-6.13 550.83-8.3 550.83-13.25L550.83-13.25Q550.83-18.45 549.98-20.5 549.13-22.55 547.33-22.55L547.33-22.55Q545.03-22.55 543.23-19.25L543.23-19.25 543.23-6.45Q544.83-3.95 546.93-3.95L546.93-3.95ZM567.38 0.75Q564.68 0.75 563.11-0.93 561.53-2.6 561.53-5.4L561.53-5.4 561.53-37.05 567.68-37.7 567.68-5.65Q567.68-5 567.98-4.6 568.28-4.2 568.88-4.2L568.88-4.2Q569.23-4.2 569.56-4.3 569.88-4.4 569.98-4.4L569.98-4.4 571.18-0.2Q569.48 0.75 567.38 0.75L567.38 0.75ZM574.23-26.45L580.38-26.45 580.38 0 574.23 0 574.23-26.45ZM577.28-39.65Q578.93-39.65 579.95-38.6 580.98-37.55 580.98-35.9L580.98-35.9Q580.98-34.3 579.95-33.25 578.93-32.2 577.28-32.2L577.28-32.2Q575.63-32.2 574.6-33.25 573.58-34.3 573.58-35.9L573.58-35.9Q573.58-37.55 574.6-38.6 575.63-39.65 577.28-39.65L577.28-39.65ZM595.77-33.05Q594.38-33.05 593.7-32.3 593.02-31.55 593.02-30L593.02-30 593.02-26.45 598.08-26.45 597.38-22 593.02-22 593.02 0 586.88 0 586.88-22 583.58-22 583.58-26.45 586.88-26.45 586.88-29.8Q586.88-33.4 588.98-35.55 591.08-37.7 594.98-37.7L594.98-37.7Q598.02-37.7 600.88-36.2L600.88-36.2 599.18-32.2Q597.43-33.05 595.77-33.05L595.77-33.05ZM619.52-26.45L612.52 0.1Q611.22 4.9 608.32 7.65 605.42 10.4 600.57 10.85L600.57 10.85 599.87 6.5Q603.02 5.85 604.6 4.42 606.17 3 607.07 0L607.07 0 604.77 0 598.07-26.45 604.32-26.45 608.72-4.1 613.42-26.45 619.52-26.45ZM654.32-26.45L660.02-26.45 655.47 0 647.97 0 645.02-20.85 642.12 0 634.67 0 630.02-26.45 635.97-26.45 638.67-4.6 642.02-26.45 648.27-26.45 651.47-4.6 654.32-26.45ZM663.51-26.45L669.66-26.45 669.66 0 663.51 0 663.51-26.45ZM666.56-39.65Q668.21-39.65 669.24-38.6 670.26-37.55 670.26-35.9L670.26-35.9Q670.26-34.3 669.24-33.25 668.21-32.2 666.56-32.2L666.56-32.2Q664.91-32.2 663.89-33.25 662.86-34.3 662.86-35.9L662.86-35.9Q662.86-37.55 663.89-38.6 664.91-39.65 666.56-39.65L666.56-39.65ZM686.51-5L688.66-1.2Q686.21 0.75 682.91 0.75L682.91 0.75Q679.46 0.75 677.66-1.23 675.86-3.2 675.86-6.6L675.86-6.6 675.86-22 672.76-22 672.76-26.45 675.86-26.45 675.86-32.3 682.01-33.05 682.01-26.45 687.01-26.45 686.41-22 682.01-22 682.01-6.6Q682.01-4.2 684.06-4.2L684.06-4.2Q684.71-4.2 685.21-4.38 685.71-4.55 686.51-5L686.51-5ZM703.56-27.15Q706.41-27.15 708.06-25.1 709.71-23.05 709.71-19.6L709.71-19.6 709.71 0 703.56 0 703.56-18.9Q703.56-20.8 703.03-21.63 702.51-22.45 701.51-22.45L701.51-22.45Q699.41-22.45 697.36-18.5L697.36-18.5 697.36 0 691.21 0 691.21-37 697.36-37.65 697.36-23.3Q698.61-25.25 700.08-26.2 701.56-27.15 703.56-27.15L703.56-27.15ZM746.6-34.55L746.6-9.7Q746.6-5.15 743.78-2.23 740.95 0.7 735.7 0.7L735.7 0.7Q730.35 0.7 727.55-2.18 724.75-5.05 724.75-9.7L724.75-9.7 724.75-34.55 731.1-34.55 731.1-10Q731.1-7.1 732.2-5.68 733.3-4.25 735.7-4.25L735.7-4.25Q738.05-4.25 739.15-5.68 740.25-7.1 740.25-10L740.25-10 740.25-34.55 746.6-34.55ZM759.3-27.15Q764-27.15 767.25-24.05L767.25-24.05 764.9-20.7Q763.5-21.7 762.25-22.2 761-22.7 759.7-22.7L759.7-22.7Q758.25-22.7 757.43-21.93 756.6-21.15 756.6-19.8L756.6-19.8Q756.6-18.45 757.53-17.63 758.45-16.8 761.25-15.7L761.25-15.7Q764.7-14.35 766.35-12.5 768-10.65 768-7.55L768-7.55Q768-3.7 765.3-1.48 762.6 0.75 758.45 0.75L758.45 0.75Q755.75 0.75 753.48-0.23 751.2-1.2 749.5-2.95L749.5-2.95 752.5-6.25Q755.3-3.8 758.2-3.8L758.2-3.8Q759.85-3.8 760.8-4.67 761.75-5.55 761.75-7.1L761.75-7.1Q761.75-8.25 761.35-8.97 760.95-9.7 759.95-10.33 758.95-10.95 756.95-11.7L756.95-11.7Q753.5-13.05 752.03-14.85 750.55-16.65 750.55-19.45L750.55-19.45Q750.55-22.8 752.93-24.98 755.3-27.15 759.3-27.15L759.3-27.15Z" opacity="1" transform="matrix(1,0,0,1,0,0)" fill="#ffffff" class="slogan-text-1" data-fill-palette-color="quaternary" id="text-1"></path></svg></g></svg></g></svg></g></svg></g><g></g></svg></g></svg></g></svg></g><defs></defs></svg><rect width="512" height="320" fill="none" stroke="none" visibility="hidden"></rect></g></svg></g></svg>